<?xml version="1.0" encoding="utf-8" standalone="no"?>
<!DOCTYPE svg PUBLIC "-//W3C//DTD SVG 1.1//EN"
  "http://www.w3.org/Graphics/SVG/1.1/DTD/svg11.dtd">
<!-- Created with matplotlib (https://matplotlib.org/) -->
<svg height="180pt" version="1.1" viewBox="0 0 460.8 180" width="460.8pt" xmlns="http://www.w3.org/2000/svg" xmlns:xlink="http://www.w3.org/1999/xlink">
 <defs>
  <style type="text/css">
*{stroke-linecap:butt;stroke-linejoin:round;}
  </style>
 </defs>
 <g id="figure_1">
  <g id="patch_1">
   <path d="M 0 180 
L 460.8 180 
L 460.8 0 
L 0 0 
z
" style="fill:#ffffff;"/>
  </g>
  <g id="axes_1">
   <g id="patch_2">
    <path d="M 40.033969 147.76 
L 452.529231 147.76 
L 452.529231 15.6 
L 40.033969 15.6 
z
" style="fill:#ffffff;"/>
   </g>
   <g id="matplotlib.axis_1">
    <g id="xtick_1">
     <g id="line2d_1">
      <path clip-path="url(#pf0dcfcb80f)" d="M 70.193991 147.76 
L 70.193991 15.6 
" style="fill:none;stroke:#b0b0b0;stroke-linecap:square;stroke-width:0.8;"/>
     </g>
     <g id="line2d_2">
      <defs>
       <path d="M 0 0 
L 0 3.5 
" id="mf7dca9a388" style="stroke:#000000;stroke-width:0.8;"/>
      </defs>
      <g>
       <use style="stroke:#000000;stroke-width:0.8;" x="70.193991" xlink:href="#mf7dca9a388" y="147.76"/>
      </g>
     </g>
     <g id="text_1">
      <!-- 3000 -->
      <defs>
       <path d="M 5.078125 53.609375 
Q 7.90625 60.296875 12.21875 63.9375 
Q 16.546875 67.578125 23 67.578125 
Q 30.953125 67.578125 35.203125 62.40625 
Q 38.421875 58.546875 38.421875 54.15625 
Q 38.421875 46.921875 29.34375 39.203125 
Q 35.453125 36.8125 38.578125 32.375 
Q 41.703125 27.9375 41.703125 21.921875 
Q 41.703125 13.328125 36.234375 7.03125 
Q 29.109375 -1.171875 15.578125 -1.171875 
Q 8.890625 -1.171875 6.46875 0.484375 
Q 4.046875 2.15625 4.046875 4.046875 
Q 4.046875 5.46875 5.1875 6.546875 
Q 6.34375 7.625 7.953125 7.625 
Q 9.1875 7.625 10.453125 7.234375 
Q 11.28125 6.984375 14.203125 5.4375 
Q 17.140625 3.90625 18.265625 3.609375 
Q 20.0625 3.078125 22.125 3.078125 
Q 27.09375 3.078125 30.78125 6.9375 
Q 34.46875 10.796875 34.46875 16.0625 
Q 34.46875 19.921875 32.765625 23.578125 
Q 31.5 26.3125 29.984375 27.734375 
Q 27.875 29.6875 24.21875 31.265625 
Q 20.5625 32.859375 16.75 32.859375 
L 15.1875 32.859375 
L 15.1875 34.328125 
Q 19.046875 34.8125 22.921875 37.109375 
Q 26.8125 39.40625 28.5625 42.625 
Q 30.328125 45.84375 30.328125 49.703125 
Q 30.328125 54.734375 27.171875 57.828125 
Q 24.03125 60.9375 19.34375 60.9375 
Q 11.765625 60.9375 6.6875 52.828125 
z
" id="TimesNewRomanPSMT-51"/>
       <path d="M 3.609375 32.71875 
Q 3.609375 44.046875 7.03125 52.21875 
Q 10.453125 60.40625 16.109375 64.40625 
Q 20.515625 67.578125 25.203125 67.578125 
Q 32.8125 67.578125 38.875 59.8125 
Q 46.4375 50.203125 46.4375 33.734375 
Q 46.4375 22.21875 43.109375 14.15625 
Q 39.796875 6.109375 34.640625 2.46875 
Q 29.5 -1.171875 24.703125 -1.171875 
Q 15.234375 -1.171875 8.9375 10.015625 
Q 3.609375 19.4375 3.609375 32.71875 
z
M 13.1875 31.5 
Q 13.1875 17.828125 16.546875 9.1875 
Q 19.34375 1.90625 24.859375 1.90625 
Q 27.484375 1.90625 30.3125 4.265625 
Q 33.15625 6.640625 34.625 12.203125 
Q 36.859375 20.609375 36.859375 35.890625 
Q 36.859375 47.21875 34.515625 54.78125 
Q 32.765625 60.40625 29.984375 62.75 
Q 27.984375 64.359375 25.140625 64.359375 
Q 21.828125 64.359375 19.234375 61.375 
Q 15.71875 57.328125 14.453125 48.625 
Q 13.1875 39.9375 13.1875 31.5 
z
" id="TimesNewRomanPSMT-48"/>
      </defs>
      <g transform="translate(63.193991 159.620625)scale(0.07 -0.07)">
       <use xlink:href="#TimesNewRomanPSMT-51"/>
       <use x="50" xlink:href="#TimesNewRomanPSMT-48"/>
       <use x="100" xlink:href="#TimesNewRomanPSMT-48"/>
       <use x="150" xlink:href="#TimesNewRomanPSMT-48"/>
      </g>
     </g>
    </g>
    <g id="xtick_2">
     <g id="line2d_3">
      <path clip-path="url(#pf0dcfcb80f)" d="M 139.43785 147.76 
L 139.43785 15.6 
" style="fill:none;stroke:#b0b0b0;stroke-linecap:square;stroke-width:0.8;"/>
     </g>
     <g id="line2d_4">
      <g>
       <use style="stroke:#000000;stroke-width:0.8;" x="139.43785" xlink:href="#mf7dca9a388" y="147.76"/>
      </g>
     </g>
     <g id="text_2">
      <!-- 3500 -->
      <defs>
       <path d="M 43.40625 66.21875 
L 39.59375 57.90625 
L 19.671875 57.90625 
L 15.328125 49.03125 
Q 28.265625 47.125 35.84375 39.40625 
Q 42.328125 32.765625 42.328125 23.78125 
Q 42.328125 18.5625 40.203125 14.109375 
Q 38.09375 9.671875 34.859375 6.546875 
Q 31.640625 3.421875 27.6875 1.515625 
Q 22.078125 -1.171875 16.15625 -1.171875 
Q 10.203125 -1.171875 7.484375 0.84375 
Q 4.78125 2.875 4.78125 5.328125 
Q 4.78125 6.6875 5.90625 7.734375 
Q 7.03125 8.796875 8.734375 8.796875 
Q 10.015625 8.796875 10.96875 8.40625 
Q 11.921875 8.015625 14.203125 6.390625 
Q 17.875 3.859375 21.625 3.859375 
Q 27.34375 3.859375 31.65625 8.171875 
Q 35.984375 12.5 35.984375 18.703125 
Q 35.984375 24.703125 32.125 29.90625 
Q 28.265625 35.109375 21.484375 37.9375 
Q 16.15625 40.140625 6.984375 40.484375 
L 19.671875 66.21875 
z
" id="TimesNewRomanPSMT-53"/>
      </defs>
      <g transform="translate(132.43785 159.620625)scale(0.07 -0.07)">
       <use xlink:href="#TimesNewRomanPSMT-51"/>
       <use x="50" xlink:href="#TimesNewRomanPSMT-53"/>
       <use x="100" xlink:href="#TimesNewRomanPSMT-48"/>
       <use x="150" xlink:href="#TimesNewRomanPSMT-48"/>
      </g>
     </g>
    </g>
    <g id="xtick_3">
     <g id="line2d_5">
      <path clip-path="url(#pf0dcfcb80f)" d="M 208.68171 147.76 
L 208.68171 15.6 
" style="fill:none;stroke:#b0b0b0;stroke-linecap:square;stroke-width:0.8;"/>
     </g>
     <g id="line2d_6">
      <g>
       <use style="stroke:#000000;stroke-width:0.8;" x="208.68171" xlink:href="#mf7dca9a388" y="147.76"/>
      </g>
     </g>
     <g id="text_3">
      <!-- 4000 -->
      <defs>
       <path d="M 46.53125 24.421875 
L 46.53125 17.484375 
L 37.640625 17.484375 
L 37.640625 0 
L 29.59375 0 
L 29.59375 17.484375 
L 1.5625 17.484375 
L 1.5625 23.734375 
L 32.28125 67.578125 
L 37.640625 67.578125 
L 37.640625 24.421875 
z
M 29.59375 24.421875 
L 29.59375 57.28125 
L 6.34375 24.421875 
z
" id="TimesNewRomanPSMT-52"/>
      </defs>
      <g transform="translate(201.68171 159.620625)scale(0.07 -0.07)">
       <use xlink:href="#TimesNewRomanPSMT-52"/>
       <use x="50" xlink:href="#TimesNewRomanPSMT-48"/>
       <use x="100" xlink:href="#TimesNewRomanPSMT-48"/>
       <use x="150" xlink:href="#TimesNewRomanPSMT-48"/>
      </g>
     </g>
    </g>
    <g id="xtick_4">
     <g id="line2d_7">
      <path clip-path="url(#pf0dcfcb80f)" d="M 277.92557 147.76 
L 277.92557 15.6 
" style="fill:none;stroke:#b0b0b0;stroke-linecap:square;stroke-width:0.8;"/>
     </g>
     <g id="line2d_8">
      <g>
       <use style="stroke:#000000;stroke-width:0.8;" x="277.92557" xlink:href="#mf7dca9a388" y="147.76"/>
      </g>
     </g>
     <g id="text_4">
      <!-- 4500 -->
      <g transform="translate(270.92557 159.620625)scale(0.07 -0.07)">
       <use xlink:href="#TimesNewRomanPSMT-52"/>
       <use x="50" xlink:href="#TimesNewRomanPSMT-53"/>
       <use x="100" xlink:href="#TimesNewRomanPSMT-48"/>
       <use x="150" xlink:href="#TimesNewRomanPSMT-48"/>
      </g>
     </g>
    </g>
    <g id="xtick_5">
     <g id="line2d_9">
      <path clip-path="url(#pf0dcfcb80f)" d="M 347.169429 147.76 
L 347.169429 15.6 
" style="fill:none;stroke:#b0b0b0;stroke-linecap:square;stroke-width:0.8;"/>
     </g>
     <g id="line2d_10">
      <g>
       <use style="stroke:#000000;stroke-width:0.8;" x="347.169429" xlink:href="#mf7dca9a388" y="147.76"/>
      </g>
     </g>
     <g id="text_5">
      <!-- 5000 -->
      <g transform="translate(340.169429 159.620625)scale(0.07 -0.07)">
       <use xlink:href="#TimesNewRomanPSMT-53"/>
       <use x="50" xlink:href="#TimesNewRomanPSMT-48"/>
       <use x="100" xlink:href="#TimesNewRomanPSMT-48"/>
       <use x="150" xlink:href="#TimesNewRomanPSMT-48"/>
      </g>
     </g>
    </g>
    <g id="xtick_6">
     <g id="line2d_11">
      <path clip-path="url(#pf0dcfcb80f)" d="M 416.413289 147.76 
L 416.413289 15.6 
" style="fill:none;stroke:#b0b0b0;stroke-linecap:square;stroke-width:0.8;"/>
     </g>
     <g id="line2d_12">
      <g>
       <use style="stroke:#000000;stroke-width:0.8;" x="416.413289" xlink:href="#mf7dca9a388" y="147.76"/>
      </g>
     </g>
     <g id="text_6">
      <!-- 5500 -->
      <g transform="translate(409.413289 159.620625)scale(0.07 -0.07)">
       <use xlink:href="#TimesNewRomanPSMT-53"/>
       <use x="50" xlink:href="#TimesNewRomanPSMT-53"/>
       <use x="100" xlink:href="#TimesNewRomanPSMT-48"/>
       <use x="150" xlink:href="#TimesNewRomanPSMT-48"/>
      </g>
     </g>
    </g>
    <g id="text_7">
     <!-- time [mjd2000] -->
     <defs>
      <path d="M 16.109375 59.421875 
L 16.109375 44.734375 
L 26.5625 44.734375 
L 26.5625 41.3125 
L 16.109375 41.3125 
L 16.109375 12.3125 
Q 16.109375 7.953125 17.359375 6.4375 
Q 18.609375 4.9375 20.5625 4.9375 
Q 22.171875 4.9375 23.6875 5.9375 
Q 25.203125 6.9375 26.03125 8.890625 
L 27.9375 8.890625 
Q 26.21875 4.109375 23.09375 1.6875 
Q 19.96875 -0.734375 16.65625 -0.734375 
Q 14.40625 -0.734375 12.25 0.515625 
Q 10.109375 1.765625 9.078125 4.078125 
Q 8.0625 6.390625 8.0625 11.234375 
L 8.0625 41.3125 
L 0.984375 41.3125 
L 0.984375 42.921875 
Q 3.65625 44 6.46875 46.5625 
Q 9.28125 49.125 11.46875 52.640625 
Q 12.59375 54.5 14.59375 59.421875 
z
" id="TimesNewRomanPSMT-116"/>
      <path d="M 14.5 69.4375 
Q 16.546875 69.4375 17.984375 67.984375 
Q 19.4375 66.546875 19.4375 64.5 
Q 19.4375 62.453125 17.984375 60.984375 
Q 16.546875 59.515625 14.5 59.515625 
Q 12.453125 59.515625 10.984375 60.984375 
Q 9.515625 62.453125 9.515625 64.5 
Q 9.515625 66.546875 10.953125 67.984375 
Q 12.40625 69.4375 14.5 69.4375 
z
M 18.5625 46.046875 
L 18.5625 10.109375 
Q 18.5625 5.90625 19.171875 4.515625 
Q 19.78125 3.125 20.96875 2.4375 
Q 22.171875 1.765625 25.34375 1.765625 
L 25.34375 0 
L 3.609375 0 
L 3.609375 1.765625 
Q 6.890625 1.765625 8 2.390625 
Q 9.125 3.03125 9.78125 4.484375 
Q 10.453125 5.953125 10.453125 10.109375 
L 10.453125 27.34375 
Q 10.453125 34.625 10.015625 36.765625 
Q 9.671875 38.328125 8.9375 38.9375 
Q 8.203125 39.546875 6.9375 39.546875 
Q 5.5625 39.546875 3.609375 38.8125 
L 2.9375 40.578125 
L 16.40625 46.046875 
z
" id="TimesNewRomanPSMT-105"/>
      <path d="M 16.40625 36.53125 
Q 21.296875 41.40625 22.171875 42.140625 
Q 24.359375 44 26.890625 45.015625 
Q 29.4375 46.046875 31.9375 46.046875 
Q 36.140625 46.046875 39.15625 43.59375 
Q 42.1875 41.15625 43.21875 36.53125 
Q 48.25 42.390625 51.703125 44.21875 
Q 55.171875 46.046875 58.84375 46.046875 
Q 62.40625 46.046875 65.15625 44.21875 
Q 67.921875 42.390625 69.53125 38.234375 
Q 70.609375 35.40625 70.609375 29.34375 
L 70.609375 10.109375 
Q 70.609375 5.90625 71.234375 4.34375 
Q 71.734375 3.265625 73.046875 2.515625 
Q 74.359375 1.765625 77.34375 1.765625 
L 77.34375 0 
L 55.28125 0 
L 55.28125 1.765625 
L 56.203125 1.765625 
Q 59.078125 1.765625 60.6875 2.875 
Q 61.8125 3.65625 62.3125 5.375 
Q 62.5 6.203125 62.5 10.109375 
L 62.5 29.34375 
Q 62.5 34.8125 61.1875 37.0625 
Q 59.28125 40.1875 55.078125 40.1875 
Q 52.484375 40.1875 49.875 38.890625 
Q 47.265625 37.59375 43.5625 34.078125 
L 43.453125 33.546875 
L 43.5625 31.453125 
L 43.5625 10.109375 
Q 43.5625 5.515625 44.0625 4.390625 
Q 44.578125 3.265625 45.984375 2.515625 
Q 47.40625 1.765625 50.828125 1.765625 
L 50.828125 0 
L 28.21875 0 
L 28.21875 1.765625 
Q 31.9375 1.765625 33.328125 2.640625 
Q 34.71875 3.515625 35.25 5.28125 
Q 35.5 6.109375 35.5 10.109375 
L 35.5 29.34375 
Q 35.5 34.8125 33.890625 37.203125 
Q 31.734375 40.328125 27.875 40.328125 
Q 25.25 40.328125 22.65625 38.921875 
Q 18.609375 36.765625 16.40625 34.078125 
L 16.40625 10.109375 
Q 16.40625 5.71875 17.015625 4.390625 
Q 17.625 3.078125 18.8125 2.421875 
Q 20.015625 1.765625 23.6875 1.765625 
L 23.6875 0 
L 1.5625 0 
L 1.5625 1.765625 
Q 4.640625 1.765625 5.859375 2.421875 
Q 7.078125 3.078125 7.703125 4.515625 
Q 8.34375 5.953125 8.34375 10.109375 
L 8.34375 27.203125 
Q 8.34375 34.578125 7.90625 36.71875 
Q 7.5625 38.328125 6.828125 38.9375 
Q 6.109375 39.546875 4.828125 39.546875 
Q 3.46875 39.546875 1.5625 38.8125 
L 0.828125 40.578125 
L 14.3125 46.046875 
L 16.40625 46.046875 
z
" id="TimesNewRomanPSMT-109"/>
      <path d="M 10.640625 27.875 
Q 10.59375 17.921875 15.484375 12.25 
Q 20.359375 6.59375 26.953125 6.59375 
Q 31.34375 6.59375 34.59375 9 
Q 37.84375 11.421875 40.046875 17.28125 
L 41.546875 16.3125 
Q 40.53125 9.625 35.59375 4.125 
Q 30.671875 -1.375 23.25 -1.375 
Q 15.1875 -1.375 9.453125 4.90625 
Q 3.71875 11.1875 3.71875 21.78125 
Q 3.71875 33.25 9.59375 39.671875 
Q 15.484375 46.09375 24.359375 46.09375 
Q 31.890625 46.09375 36.71875 41.140625 
Q 41.546875 36.1875 41.546875 27.875 
z
M 10.640625 30.71875 
L 31.34375 30.71875 
Q 31.109375 35.015625 30.328125 36.765625 
Q 29.109375 39.5 26.6875 41.0625 
Q 24.265625 42.625 21.625 42.625 
Q 17.578125 42.625 14.375 39.46875 
Q 11.1875 36.328125 10.640625 30.71875 
z
" id="TimesNewRomanPSMT-101"/>
      <path id="TimesNewRomanPSMT-32"/>
      <path d="M 29.6875 -19.828125 
L 8.203125 -19.828125 
L 8.203125 67.71875 
L 29.6875 67.71875 
L 29.6875 63.875 
L 15.53125 63.875 
L 15.53125 -16.015625 
L 29.6875 -16.015625 
z
" id="TimesNewRomanPSMT-91"/>
      <path d="M 14.453125 69.484375 
Q 16.546875 69.484375 18.015625 68.015625 
Q 19.484375 66.546875 19.484375 64.453125 
Q 19.484375 62.40625 18.015625 60.9375 
Q 16.546875 59.46875 14.453125 59.46875 
Q 12.40625 59.46875 10.9375 60.9375 
Q 9.46875 62.40625 9.46875 64.453125 
Q 9.46875 66.546875 10.9375 68.015625 
Q 12.40625 69.484375 14.453125 69.484375 
z
M 18.65625 46.046875 
L 18.65625 1.03125 
Q 18.65625 -10.453125 13.765625 -16.015625 
Q 8.890625 -21.578125 1.078125 -21.578125 
Q -3.375 -21.578125 -5.515625 -19.96875 
Q -7.671875 -18.359375 -7.671875 -16.65625 
Q -7.671875 -14.9375 -6.46875 -13.71875 
Q -5.28125 -12.5 -3.65625 -12.5 
Q -2.390625 -12.5 -1.078125 -13.140625 
Q -0.25 -13.484375 2.125 -15.59375 
Q 4.5 -17.71875 6.109375 -17.71875 
Q 7.28125 -17.71875 8.390625 -16.8125 
Q 9.515625 -15.921875 10.046875 -13.796875 
Q 10.59375 -11.671875 10.59375 -4.59375 
L 10.59375 27.25 
Q 10.59375 34.625 10.15625 36.71875 
Q 9.8125 38.328125 9.078125 38.9375 
Q 8.34375 39.546875 7.078125 39.546875 
Q 5.71875 39.546875 3.765625 38.8125 
L 3.078125 40.578125 
L 16.546875 46.046875 
z
" id="TimesNewRomanPSMT-106"/>
      <path d="M 34.71875 5.03125 
Q 31.453125 1.609375 28.328125 0.109375 
Q 25.203125 -1.375 21.578125 -1.375 
Q 14.265625 -1.375 8.796875 4.75 
Q 3.328125 10.890625 3.328125 20.515625 
Q 3.328125 30.125 9.375 38.109375 
Q 15.4375 46.09375 24.953125 46.09375 
Q 30.859375 46.09375 34.71875 42.328125 
L 34.71875 50.59375 
Q 34.71875 58.25 34.34375 60 
Q 33.984375 61.765625 33.203125 62.390625 
Q 32.421875 63.03125 31.25 63.03125 
Q 29.984375 63.03125 27.875 62.25 
L 27.25 63.96875 
L 40.578125 69.4375 
L 42.78125 69.4375 
L 42.78125 17.71875 
Q 42.78125 9.859375 43.140625 8.125 
Q 43.5 6.390625 44.3125 5.703125 
Q 45.125 5.03125 46.1875 5.03125 
Q 47.515625 5.03125 49.703125 5.859375 
L 50.25 4.15625 
L 36.96875 -1.375 
L 34.71875 -1.375 
z
M 34.71875 8.453125 
L 34.71875 31.5 
Q 34.421875 34.8125 32.953125 37.546875 
Q 31.5 40.28125 29.078125 41.671875 
Q 26.65625 43.0625 24.359375 43.0625 
Q 20.0625 43.0625 16.703125 39.203125 
Q 12.25 34.125 12.25 24.359375 
Q 12.25 14.5 16.546875 9.25 
Q 20.84375 4 26.125 4 
Q 30.5625 4 34.71875 8.453125 
z
" id="TimesNewRomanPSMT-100"/>
      <path d="M 45.84375 12.75 
L 41.21875 0 
L 2.15625 0 
L 2.15625 1.8125 
Q 19.390625 17.53125 26.421875 27.484375 
Q 33.453125 37.453125 33.453125 45.703125 
Q 33.453125 52 29.59375 56.046875 
Q 25.734375 60.109375 20.359375 60.109375 
Q 15.484375 60.109375 11.59375 57.25 
Q 7.71875 54.390625 5.859375 48.875 
L 4.046875 48.875 
Q 5.28125 57.90625 10.328125 62.734375 
Q 15.375 67.578125 22.953125 67.578125 
Q 31 67.578125 36.390625 62.40625 
Q 41.796875 57.234375 41.796875 50.203125 
Q 41.796875 45.171875 39.453125 40.140625 
Q 35.84375 32.234375 27.734375 23.390625 
Q 15.578125 10.109375 12.546875 7.375 
L 29.828125 7.375 
Q 35.109375 7.375 37.234375 7.765625 
Q 39.359375 8.15625 41.0625 9.34375 
Q 42.78125 10.546875 44.046875 12.75 
z
" id="TimesNewRomanPSMT-50"/>
      <path d="M 3.65625 67.71875 
L 25.140625 67.71875 
L 25.140625 -19.875 
L 3.65625 -19.875 
L 3.65625 -16.015625 
L 17.828125 -16.015625 
L 17.828125 63.875 
L 3.65625 63.875 
z
" id="TimesNewRomanPSMT-93"/>
     </defs>
     <g transform="translate(221.285975 170.676719)scale(0.08 -0.08)">
      <use xlink:href="#TimesNewRomanPSMT-116"/>
      <use x="27.783203" xlink:href="#TimesNewRomanPSMT-105"/>
      <use x="55.566406" xlink:href="#TimesNewRomanPSMT-109"/>
      <use x="133.349609" xlink:href="#TimesNewRomanPSMT-101"/>
      <use x="177.734375" xlink:href="#TimesNewRomanPSMT-32"/>
      <use x="202.734375" xlink:href="#TimesNewRomanPSMT-91"/>
      <use x="236.035156" xlink:href="#TimesNewRomanPSMT-109"/>
      <use x="313.818359" xlink:href="#TimesNewRomanPSMT-106"/>
      <use x="341.601562" xlink:href="#TimesNewRomanPSMT-100"/>
      <use x="391.601562" xlink:href="#TimesNewRomanPSMT-50"/>
      <use x="441.601562" xlink:href="#TimesNewRomanPSMT-48"/>
      <use x="491.601562" xlink:href="#TimesNewRomanPSMT-48"/>
      <use x="541.601562" xlink:href="#TimesNewRomanPSMT-48"/>
      <use x="591.601562" xlink:href="#TimesNewRomanPSMT-93"/>
     </g>
    </g>
   </g>
   <g id="matplotlib.axis_2">
    <g id="ytick_1">
     <g id="line2d_13">
      <path clip-path="url(#pf0dcfcb80f)" d="M 40.033969 141.490941 
L 452.529231 141.490941 
" style="fill:none;stroke:#b0b0b0;stroke-linecap:square;stroke-width:0.8;"/>
     </g>
     <g id="line2d_14">
      <defs>
       <path d="M 0 0 
L -3.5 0 
" id="mc3ed1cf736" style="stroke:#000000;stroke-width:0.8;"/>
      </defs>
      <g>
       <use style="stroke:#000000;stroke-width:0.8;" x="40.033969" xlink:href="#mc3ed1cf736" y="141.490941"/>
      </g>
     </g>
     <g id="text_8">
      <!-- −2.0 -->
      <defs>
       <path d="M 54.4375 31.25 
L 1.8125 31.25 
L 1.8125 35.25 
L 54.4375 35.25 
z
" id="TimesNewRomanPSMT-8722"/>
       <path d="M 12.5 9.46875 
Q 14.796875 9.46875 16.359375 7.875 
Q 17.921875 6.296875 17.921875 4.046875 
Q 17.921875 1.8125 16.328125 0.21875 
Q 14.75 -1.375 12.5 -1.375 
Q 10.25 -1.375 8.65625 0.21875 
Q 7.078125 1.8125 7.078125 4.046875 
Q 7.078125 6.34375 8.65625 7.90625 
Q 10.25 9.46875 12.5 9.46875 
z
" id="TimesNewRomanPSMT-46"/>
      </defs>
      <g transform="translate(20.336625 143.921254)scale(0.07 -0.07)">
       <use xlink:href="#TimesNewRomanPSMT-8722"/>
       <use x="56.396484" xlink:href="#TimesNewRomanPSMT-50"/>
       <use x="106.396484" xlink:href="#TimesNewRomanPSMT-46"/>
       <use x="131.396484" xlink:href="#TimesNewRomanPSMT-48"/>
      </g>
     </g>
    </g>
    <g id="ytick_2">
     <g id="line2d_15">
      <path clip-path="url(#pf0dcfcb80f)" d="M 40.033969 126.57326 
L 452.529231 126.57326 
" style="fill:none;stroke:#b0b0b0;stroke-linecap:square;stroke-width:0.8;"/>
     </g>
     <g id="line2d_16">
      <g>
       <use style="stroke:#000000;stroke-width:0.8;" x="40.033969" xlink:href="#mc3ed1cf736" y="126.57326"/>
      </g>
     </g>
     <g id="text_9">
      <!-- −1.5 -->
      <defs>
       <path d="M 11.71875 59.71875 
L 27.828125 67.578125 
L 29.4375 67.578125 
L 29.4375 11.671875 
Q 29.4375 6.109375 29.90625 4.734375 
Q 30.375 3.375 31.828125 2.640625 
Q 33.296875 1.90625 37.796875 1.8125 
L 37.796875 0 
L 12.890625 0 
L 12.890625 1.8125 
Q 17.578125 1.90625 18.9375 2.609375 
Q 20.3125 3.328125 20.84375 4.515625 
Q 21.390625 5.71875 21.390625 11.671875 
L 21.390625 47.40625 
Q 21.390625 54.640625 20.90625 56.6875 
Q 20.5625 58.25 19.65625 58.984375 
Q 18.75 59.71875 17.484375 59.71875 
Q 15.671875 59.71875 12.453125 58.203125 
z
" id="TimesNewRomanPSMT-49"/>
      </defs>
      <g transform="translate(20.336625 129.003573)scale(0.07 -0.07)">
       <use xlink:href="#TimesNewRomanPSMT-8722"/>
       <use x="56.396484" xlink:href="#TimesNewRomanPSMT-49"/>
       <use x="106.396484" xlink:href="#TimesNewRomanPSMT-46"/>
       <use x="131.396484" xlink:href="#TimesNewRomanPSMT-53"/>
      </g>
     </g>
    </g>
    <g id="ytick_3">
     <g id="line2d_17">
      <path clip-path="url(#pf0dcfcb80f)" d="M 40.033969 111.655579 
L 452.529231 111.655579 
" style="fill:none;stroke:#b0b0b0;stroke-linecap:square;stroke-width:0.8;"/>
     </g>
     <g id="line2d_18">
      <g>
       <use style="stroke:#000000;stroke-width:0.8;" x="40.033969" xlink:href="#mc3ed1cf736" y="111.655579"/>
      </g>
     </g>
     <g id="text_10">
      <!-- −1.0 -->
      <g transform="translate(20.336625 114.085892)scale(0.07 -0.07)">
       <use xlink:href="#TimesNewRomanPSMT-8722"/>
       <use x="56.396484" xlink:href="#TimesNewRomanPSMT-49"/>
       <use x="106.396484" xlink:href="#TimesNewRomanPSMT-46"/>
       <use x="131.396484" xlink:href="#TimesNewRomanPSMT-48"/>
      </g>
     </g>
    </g>
    <g id="ytick_4">
     <g id="line2d_19">
      <path clip-path="url(#pf0dcfcb80f)" d="M 40.033969 96.737898 
L 452.529231 96.737898 
" style="fill:none;stroke:#b0b0b0;stroke-linecap:square;stroke-width:0.8;"/>
     </g>
     <g id="line2d_20">
      <g>
       <use style="stroke:#000000;stroke-width:0.8;" x="40.033969" xlink:href="#mc3ed1cf736" y="96.737898"/>
      </g>
     </g>
     <g id="text_11">
      <!-- −0.5 -->
      <g transform="translate(20.336625 99.168211)scale(0.07 -0.07)">
       <use xlink:href="#TimesNewRomanPSMT-8722"/>
       <use x="56.396484" xlink:href="#TimesNewRomanPSMT-48"/>
       <use x="106.396484" xlink:href="#TimesNewRomanPSMT-46"/>
       <use x="131.396484" xlink:href="#TimesNewRomanPSMT-53"/>
      </g>
     </g>
    </g>
    <g id="ytick_5">
     <g id="line2d_21">
      <path clip-path="url(#pf0dcfcb80f)" d="M 40.033969 81.820218 
L 452.529231 81.820218 
" style="fill:none;stroke:#b0b0b0;stroke-linecap:square;stroke-width:0.8;"/>
     </g>
     <g id="line2d_22">
      <g>
       <use style="stroke:#000000;stroke-width:0.8;" x="40.033969" xlink:href="#mc3ed1cf736" y="81.820218"/>
      </g>
     </g>
     <g id="text_12">
      <!-- 0.0 -->
      <g transform="translate(24.283969 84.25053)scale(0.07 -0.07)">
       <use xlink:href="#TimesNewRomanPSMT-48"/>
       <use x="50" xlink:href="#TimesNewRomanPSMT-46"/>
       <use x="75" xlink:href="#TimesNewRomanPSMT-48"/>
      </g>
     </g>
    </g>
    <g id="ytick_6">
     <g id="line2d_23">
      <path clip-path="url(#pf0dcfcb80f)" d="M 40.033969 66.902537 
L 452.529231 66.902537 
" style="fill:none;stroke:#b0b0b0;stroke-linecap:square;stroke-width:0.8;"/>
     </g>
     <g id="line2d_24">
      <g>
       <use style="stroke:#000000;stroke-width:0.8;" x="40.033969" xlink:href="#mc3ed1cf736" y="66.902537"/>
      </g>
     </g>
     <g id="text_13">
      <!-- 0.5 -->
      <g transform="translate(24.283969 69.332849)scale(0.07 -0.07)">
       <use xlink:href="#TimesNewRomanPSMT-48"/>
       <use x="50" xlink:href="#TimesNewRomanPSMT-46"/>
       <use x="75" xlink:href="#TimesNewRomanPSMT-53"/>
      </g>
     </g>
    </g>
    <g id="ytick_7">
     <g id="line2d_25">
      <path clip-path="url(#pf0dcfcb80f)" d="M 40.033969 51.984856 
L 452.529231 51.984856 
" style="fill:none;stroke:#b0b0b0;stroke-linecap:square;stroke-width:0.8;"/>
     </g>
     <g id="line2d_26">
      <g>
       <use style="stroke:#000000;stroke-width:0.8;" x="40.033969" xlink:href="#mc3ed1cf736" y="51.984856"/>
      </g>
     </g>
     <g id="text_14">
      <!-- 1.0 -->
      <g transform="translate(24.283969 54.415168)scale(0.07 -0.07)">
       <use xlink:href="#TimesNewRomanPSMT-49"/>
       <use x="50" xlink:href="#TimesNewRomanPSMT-46"/>
       <use x="75" xlink:href="#TimesNewRomanPSMT-48"/>
      </g>
     </g>
    </g>
    <g id="ytick_8">
     <g id="line2d_27">
      <path clip-path="url(#pf0dcfcb80f)" d="M 40.033969 37.067175 
L 452.529231 37.067175 
" style="fill:none;stroke:#b0b0b0;stroke-linecap:square;stroke-width:0.8;"/>
     </g>
     <g id="line2d_28">
      <g>
       <use style="stroke:#000000;stroke-width:0.8;" x="40.033969" xlink:href="#mc3ed1cf736" y="37.067175"/>
      </g>
     </g>
     <g id="text_15">
      <!-- 1.5 -->
      <g transform="translate(24.283969 39.497487)scale(0.07 -0.07)">
       <use xlink:href="#TimesNewRomanPSMT-49"/>
       <use x="50" xlink:href="#TimesNewRomanPSMT-46"/>
       <use x="75" xlink:href="#TimesNewRomanPSMT-53"/>
      </g>
     </g>
    </g>
    <g id="ytick_9">
     <g id="line2d_29">
      <path clip-path="url(#pf0dcfcb80f)" d="M 40.033969 22.149494 
L 452.529231 22.149494 
" style="fill:none;stroke:#b0b0b0;stroke-linecap:square;stroke-width:0.8;"/>
     </g>
     <g id="line2d_30">
      <g>
       <use style="stroke:#000000;stroke-width:0.8;" x="40.033969" xlink:href="#mc3ed1cf736" y="22.149494"/>
      </g>
     </g>
     <g id="text_16">
      <!-- 2.0 -->
      <g transform="translate(24.283969 24.579807)scale(0.07 -0.07)">
       <use xlink:href="#TimesNewRomanPSMT-50"/>
       <use x="50" xlink:href="#TimesNewRomanPSMT-46"/>
       <use x="75" xlink:href="#TimesNewRomanPSMT-48"/>
      </g>
     </g>
    </g>
    <g id="text_17">
     <!-- $f$ $[m/s^2]$ -->
     <defs>
      <path d="M 47.796875 75.984375 
L 46.390625 68.5 
L 37.796875 68.5 
Q 32.90625 68.5 30.6875 66.578125 
Q 28.46875 64.65625 27.390625 59.515625 
L 26.421875 54.6875 
L 41.21875 54.6875 
L 39.890625 47.703125 
L 25.09375 47.703125 
L 15.828125 0 
L 6.78125 0 
L 16.109375 47.703125 
L 7.515625 47.703125 
L 8.796875 54.6875 
L 17.390625 54.6875 
L 18.109375 58.5 
Q 19.96875 68.171875 24.625 72.078125 
Q 29.296875 75.984375 39.3125 75.984375 
z
" id="DejaVuSans-Oblique-102"/>
      <path d="M 8.59375 75.984375 
L 29.296875 75.984375 
L 29.296875 69 
L 17.578125 69 
L 17.578125 -6.203125 
L 29.296875 -6.203125 
L 29.296875 -13.1875 
L 8.59375 -13.1875 
z
" id="DejaVuSans-91"/>
      <path d="M 89.796875 33.015625 
L 83.40625 0 
L 74.421875 0 
L 80.71875 32.71875 
Q 81.109375 34.8125 81.296875 36.328125 
Q 81.5 37.84375 81.5 38.921875 
Q 81.5 43.3125 79.046875 45.75 
Q 76.609375 48.1875 72.21875 48.1875 
Q 65.671875 48.1875 60.546875 43.28125 
Q 55.421875 38.375 53.90625 30.515625 
L 47.90625 0 
L 38.921875 0 
L 45.3125 32.71875 
Q 45.703125 34.515625 45.890625 36.046875 
Q 46.09375 37.59375 46.09375 38.8125 
Q 46.09375 43.265625 43.65625 45.71875 
Q 41.21875 48.1875 36.921875 48.1875 
Q 30.28125 48.1875 25.140625 43.28125 
Q 20.015625 38.375 18.5 30.515625 
L 12.5 0 
L 3.515625 0 
L 14.203125 54.6875 
L 23.1875 54.6875 
L 21.484375 46.1875 
Q 25.140625 50.984375 30.046875 53.484375 
Q 34.96875 56 40.578125 56 
Q 46.53125 56 50.359375 52.875 
Q 54.203125 49.75 54.984375 44.1875 
Q 59.078125 49.953125 64.46875 52.96875 
Q 69.875 56 75.875 56 
Q 82.90625 56 86.734375 51.953125 
Q 90.578125 47.90625 90.578125 40.484375 
Q 90.578125 38.875 90.375 36.9375 
Q 90.1875 35.015625 89.796875 33.015625 
z
" id="DejaVuSans-Oblique-109"/>
      <path d="M 25.390625 72.90625 
L 33.6875 72.90625 
L 8.296875 -9.28125 
L 0 -9.28125 
z
" id="DejaVuSans-47"/>
      <path d="M 50 53.078125 
L 48.296875 44.578125 
Q 44.734375 46.53125 40.765625 47.5 
Q 36.8125 48.484375 32.625 48.484375 
Q 25.53125 48.484375 21.453125 46.0625 
Q 17.390625 43.65625 17.390625 39.5 
Q 17.390625 34.671875 26.859375 32.078125 
Q 27.59375 31.890625 27.9375 31.78125 
L 30.8125 30.90625 
Q 39.796875 28.421875 42.796875 25.6875 
Q 45.796875 22.953125 45.796875 18.21875 
Q 45.796875 9.515625 38.890625 4.046875 
Q 31.984375 -1.421875 20.796875 -1.421875 
Q 16.453125 -1.421875 11.671875 -0.578125 
Q 6.890625 0.25 1.125 2 
L 2.875 11.28125 
Q 7.8125 8.734375 12.59375 7.421875 
Q 17.390625 6.109375 21.78125 6.109375 
Q 28.375 6.109375 32.5 8.9375 
Q 36.625 11.765625 36.625 16.109375 
Q 36.625 20.796875 25.78125 23.6875 
L 24.859375 23.921875 
L 21.78125 24.703125 
Q 14.9375 26.515625 11.765625 29.46875 
Q 8.59375 32.421875 8.59375 37.015625 
Q 8.59375 45.75 15.15625 50.875 
Q 21.734375 56 33.015625 56 
Q 37.453125 56 41.671875 55.265625 
Q 45.90625 54.546875 50 53.078125 
z
" id="DejaVuSans-Oblique-115"/>
      <path d="M 19.1875 8.296875 
L 53.609375 8.296875 
L 53.609375 0 
L 7.328125 0 
L 7.328125 8.296875 
Q 12.9375 14.109375 22.625 23.890625 
Q 32.328125 33.6875 34.8125 36.53125 
Q 39.546875 41.84375 41.421875 45.53125 
Q 43.3125 49.21875 43.3125 52.78125 
Q 43.3125 58.59375 39.234375 62.25 
Q 35.15625 65.921875 28.609375 65.921875 
Q 23.96875 65.921875 18.8125 64.3125 
Q 13.671875 62.703125 7.8125 59.421875 
L 7.8125 69.390625 
Q 13.765625 71.78125 18.9375 73 
Q 24.125 74.21875 28.421875 74.21875 
Q 39.75 74.21875 46.484375 68.546875 
Q 53.21875 62.890625 53.21875 53.421875 
Q 53.21875 48.921875 51.53125 44.890625 
Q 49.859375 40.875 45.40625 35.40625 
Q 44.1875 33.984375 37.640625 27.21875 
Q 31.109375 20.453125 19.1875 8.296875 
z
" id="DejaVuSans-50"/>
      <path d="M 30.421875 75.984375 
L 30.421875 -13.1875 
L 9.71875 -13.1875 
L 9.71875 -6.203125 
L 21.390625 -6.203125 
L 21.390625 69 
L 9.71875 69 
L 9.71875 75.984375 
z
" id="DejaVuSans-93"/>
     </defs>
     <g transform="translate(14.625375 96.64)rotate(-90)scale(0.08 -0.08)">
      <use transform="translate(0 0.765625)" xlink:href="#DejaVuSans-Oblique-102"/>
      <use transform="translate(35.205078 0.765625)" xlink:href="#TimesNewRomanPSMT-32"/>
      <use transform="translate(60.205078 0.765625)" xlink:href="#DejaVuSans-91"/>
      <use transform="translate(99.21875 0.765625)" xlink:href="#DejaVuSans-Oblique-109"/>
      <use transform="translate(196.630859 0.765625)" xlink:href="#DejaVuSans-47"/>
      <use transform="translate(230.322266 0.765625)" xlink:href="#DejaVuSans-Oblique-115"/>
      <use transform="translate(287.071771 39.046875)scale(0.7)" xlink:href="#DejaVuSans-50"/>
      <use transform="translate(334.342279 0.765625)" xlink:href="#DejaVuSans-93"/>
     </g>
    </g>
    <g id="text_18">
     <!-- 1e−4 -->
     <g transform="translate(40.033969 12.6)scale(0.07 -0.07)">
      <use xlink:href="#TimesNewRomanPSMT-49"/>
      <use x="50" xlink:href="#TimesNewRomanPSMT-101"/>
      <use x="94.384766" xlink:href="#TimesNewRomanPSMT-8722"/>
      <use x="150.78125" xlink:href="#TimesNewRomanPSMT-52"/>
     </g>
    </g>
   </g>
   <g id="line2d_31">
    <path clip-path="url(#pf0dcfcb80f)" d="M 40.033969 76.015671 
L 41.272694 80.717934 
L 42.511418 84.348363 
L 43.750143 87.135314 
L 44.988867 89.229241 
L 45.814684 90.288801 
L 46.6405 91.102523 
L 47.466316 91.685539 
L 48.292133 92.051007 
L 49.117949 92.211679 
L 49.943765 92.181006 
L 50.769582 91.97381 
L 52.008306 91.36859 
L 53.247031 90.466257 
L 54.898663 88.920732 
L 57.376112 86.214937 
L 60.26647 83.103056 
L 61.918102 81.590094 
L 63.569735 80.373379 
L 64.808459 79.681929 
L 66.047184 79.187698 
L 67.285908 78.887931 
L 68.524633 78.77221 
L 70.176266 78.874457 
L 71.827898 79.220252 
L 73.892439 79.896378 
L 80.086062 82.178976 
L 81.737694 82.49389 
L 82.976419 82.557436 
L 84.215143 82.436029 
L 85.453868 82.094578 
L 86.692592 81.495362 
L 87.931317 80.596936 
L 89.170041 79.352879 
L 90.408766 77.710386 
L 91.64749 75.608709 
L 92.886215 72.977472 
L 94.124939 69.734881 
L 95.363664 65.785844 
L 96.18948 62.706896 
L 96.602388 77.571501 
L 99.079837 78.919526 
L 101.557287 80.001448 
L 104.034736 80.856102 
L 106.925093 81.606405 
L 109.81545 82.126116 
L 113.118715 82.474256 
L 116.421981 82.594053 
L 120.138154 82.498745 
L 124.680144 82.130975 
L 140.370654 80.56772 
L 144.086828 80.544514 
L 147.803002 80.746091 
L 151.519175 81.166885 
L 156.061165 81.926031 
L 163.493512 83.456765 
L 169.274226 84.546824 
L 173.403308 85.096645 
L 177.119482 85.353301 
L 180.422747 85.361592 
L 183.726012 85.152397 
L 187.029278 84.730443 
L 190.745451 84.025112 
L 194.874533 83.009407 
L 201.068155 81.21668 
L 208.500502 79.099282 
L 212.629584 78.170258 
L 215.93285 77.651429 
L 218.823207 77.407161 
L 221.713564 77.394238 
L 224.191013 77.5918 
L 226.668462 78.002653 
L 229.145911 78.645963 
L 231.62336 79.540718 
L 234.100809 80.705955 
L 236.578258 82.160907 
L 239.055707 83.925055 
L 241.533156 86.018063 
L 244.010605 88.459575 
L 246.488054 91.268886 
L 248.139687 93.355285 
L 248.552595 81.820218 
L 325.766423 81.820218 
L 326.179331 75.208211 
L 331.547137 76.273231 
L 338.566576 77.425708 
L 345.998923 78.418231 
L 352.192546 79.024811 
L 357.560352 79.319573 
L 362.51525 79.354375 
L 367.470148 79.14956 
L 372.837954 78.699098 
L 387.28974 77.335071 
L 391.418822 77.259413 
L 395.134995 77.422586 
L 398.438261 77.77602 
L 401.741526 78.332236 
L 405.457699 79.190098 
L 409.586781 80.393271 
L 414.541679 82.085011 
L 426.103108 86.131001 
L 429.819281 87.146247 
L 433.122547 87.815565 
L 436.012904 88.178186 
L 438.903261 88.299942 
L 441.38071 88.192065 
L 443.858159 87.873044 
L 446.335608 87.33107 
L 448.813057 86.55687 
L 451.290506 85.543631 
L 452.529231 84.945883 
L 452.529231 84.945883 
" style="fill:none;stroke:#1f77b4;stroke-dasharray:1.5,2.475;stroke-dashoffset:0;stroke-width:1.5;"/>
   </g>
   <g id="line2d_32">
    <path clip-path="url(#pf0dcfcb80f)" d="M 40.033969 141.752727 
L 41.685602 109.878619 
L 43.337235 82.563033 
L 44.575959 65.520078 
L 45.814684 51.569791 
L 47.053408 40.68764 
L 47.879224 35.073494 
L 48.705041 30.700854 
L 49.530857 27.493311 
L 50.356673 25.364228 
L 50.769582 24.674986 
L 51.18249 24.219754 
L 51.595398 23.986117 
L 52.008306 23.961533 
L 52.421214 24.133393 
L 52.834122 24.489089 
L 53.659939 25.701884 
L 54.485755 27.501043 
L 55.311572 29.790779 
L 56.550296 33.946288 
L 58.201929 40.393846 
L 63.982643 63.897437 
L 65.634276 69.379862 
L 66.873 72.886011 
L 68.111725 75.83126 
L 69.350449 78.201899 
L 70.589174 80.003632 
L 71.41499 80.899333 
L 72.240806 81.562486 
L 73.066623 82.006221 
L 73.892439 82.246048 
L 74.718255 82.299598 
L 75.544072 82.18638 
L 76.782796 81.750557 
L 78.021521 81.064713 
L 80.086062 79.593396 
L 82.563511 77.793461 
L 83.802235 77.093611 
L 85.04096 76.650494 
L 85.866776 76.542913 
L 86.692592 76.616703 
L 87.518409 76.897959 
L 88.344225 77.412145 
L 89.170041 78.183988 
L 89.995858 79.23738 
L 90.821674 80.595275 
L 91.64749 82.279602 
L 92.886215 85.46336 
L 94.124939 89.493271 
L 95.363664 94.42784 
L 96.18948 98.245823 
L 96.602388 70.733238 
L 98.666929 73.066925 
L 100.73147 75.111239 
L 102.796011 76.875053 
L 104.860552 78.367362 
L 106.925093 79.597484 
L 108.989634 80.575226 
L 111.054174 81.311017 
L 113.118715 81.81601 
L 115.183256 82.102149 
L 117.247797 82.182208 
L 119.312338 82.0698 
L 121.789787 81.701221 
L 124.267236 81.102668 
L 127.157593 80.150776 
L 130.04795 78.969597 
L 133.764124 77.190136 
L 138.719022 74.524356 
L 149.867542 68.403886 
L 153.996624 66.434404 
L 157.712798 64.912078 
L 161.016063 63.792202 
L 164.319328 62.910705 
L 167.622594 62.275687 
L 170.925859 61.886023 
L 174.229124 61.732022 
L 177.53239 61.796288 
L 181.248563 62.09922 
L 185.377645 62.671469 
L 190.332543 63.590663 
L 205.610145 66.59963 
L 209.326319 67.037858 
L 212.629584 67.230441 
L 215.93285 67.196065 
L 218.823207 66.94958 
L 221.713564 66.475137 
L 224.603921 65.74884 
L 227.08137 64.908331 
L 229.558819 63.851704 
L 232.036268 62.565167 
L 234.513717 61.035169 
L 236.991166 59.248312 
L 239.468615 57.191245 
L 241.946064 54.850551 
L 244.423513 52.212616 
L 246.900962 49.26349 
L 248.139687 47.667745 
L 248.552595 81.820218 
L 325.766423 81.820218 
L 326.179331 32.370361 
L 328.65678 39.318418 
L 331.134229 45.642011 
L 333.611678 51.347457 
L 336.089127 56.447135 
L 338.153668 60.247095 
L 340.218209 63.652403 
L 342.282749 66.679006 
L 344.34729 69.345122 
L 346.411831 71.67099 
L 348.476372 73.678585 
L 350.540913 75.391318 
L 352.605454 76.833692 
L 354.669995 78.030959 
L 357.147444 79.180243 
L 359.624893 80.057775 
L 362.102342 80.707007 
L 364.992699 81.231537 
L 368.295964 81.599494 
L 372.425046 81.83261 
L 381.921934 82.053301 
L 388.941373 82.36014 
L 395.547903 82.876956 
L 412.477138 84.345845 
L 417.019128 84.428683 
L 420.735302 84.290194 
L 424.451475 83.922059 
L 427.754741 83.370733 
L 431.058006 82.581474 
L 433.948363 81.675866 
L 436.83872 80.551911 
L 439.729078 79.192239 
L 442.619435 77.578399 
L 445.509792 75.690182 
L 448.400149 73.504865 
L 451.290506 70.996388 
L 452.529231 69.815071 
L 452.529231 69.815071 
" style="fill:none;stroke:#ff7f0e;stroke-dasharray:5.55,2.4;stroke-dashoffset:0;stroke-width:1.5;"/>
   </g>
   <g id="line2d_33">
    <path clip-path="url(#pf0dcfcb80f)" d="M 40.033969 81.804369 
L 41.685602 81.716237 
L 43.750143 81.366775 
L 45.814684 80.792468 
L 48.705041 79.721892 
L 54.898663 77.298553 
L 56.963204 76.745502 
L 59.027745 76.428401 
L 61.092286 76.379417 
L 63.156827 76.602442 
L 65.221368 77.07268 
L 67.698817 77.889918 
L 75.544072 80.765086 
L 77.608613 81.184357 
L 79.673154 81.342789 
L 81.737694 81.228738 
L 83.802235 80.875248 
L 89.995858 79.532665 
L 91.234582 79.547458 
L 92.473307 79.801028 
L 93.299123 80.141386 
L 94.124939 80.648302 
L 94.950756 81.348946 
L 95.776572 82.272143 
L 96.18948 82.826659 
L 96.602388 76.899376 
L 100.73147 77.037722 
L 104.447644 77.399342 
L 108.163817 78.003815 
L 112.705807 78.989731 
L 119.725246 80.546211 
L 123.028511 81.029741 
L 125.50596 81.193129 
L 127.983409 81.142497 
L 130.460858 80.849112 
L 132.938307 80.295833 
L 135.415756 79.478448 
L 137.893205 78.406229 
L 140.370654 77.101723 
L 143.261012 75.333363 
L 146.977185 72.785848 
L 155.648257 66.709651 
L 158.538614 64.996602 
L 161.016063 63.772911 
L 163.080604 62.962641 
L 165.145145 62.367113 
L 167.209686 62.003657 
L 169.274226 61.883964 
L 171.338767 62.013846 
L 173.403308 62.393183 
L 175.467849 63.016044 
L 177.53239 63.870995 
L 179.596931 64.941582 
L 182.07438 66.481333 
L 184.964737 68.574776 
L 188.268002 71.264976 
L 193.2229 75.643028 
L 201.481064 82.965918 
L 206.023053 86.662484 
L 210.565043 90.04526 
L 215.519941 93.442457 
L 223.778105 98.777593 
L 230.384635 102.861442 
L 233.687901 104.673536 
L 236.16535 105.800552 
L 238.229891 106.505703 
L 239.881523 106.86494 
L 241.533156 106.996766 
L 243.184789 106.855419 
L 244.423513 106.540855 
L 245.662238 106.023723 
L 246.900962 105.282027 
L 248.139687 104.293512 
L 248.552595 81.820218 
L 325.766423 81.820218 
L 326.179331 80.916673 
L 329.069688 80.028873 
L 331.547137 79.486081 
L 334.024586 79.150219 
L 336.502035 79.023064 
L 338.979484 79.103454 
L 341.456933 79.387555 
L 343.934382 79.868988 
L 346.824739 80.668015 
L 349.715097 81.704625 
L 353.018362 83.149153 
L 356.734535 85.051125 
L 361.276525 87.661121 
L 373.66377 94.962189 
L 376.967036 96.580342 
L 379.857393 97.770125 
L 382.74775 98.707279 
L 385.225199 99.285546 
L 387.702648 99.641033 
L 390.180097 99.765425 
L 392.657546 99.656507 
L 395.134995 99.318334 
L 397.612444 98.761235 
L 400.502801 97.85679 
L 403.393159 96.712687 
L 406.696424 95.169793 
L 411.238414 92.780242 
L 420.322394 87.928646 
L 424.038567 86.238285 
L 427.341832 84.992342 
L 430.23219 84.128097 
L 433.122547 83.477511 
L 436.425812 82.96906 
L 440.554894 82.578081 
L 446.335608 82.022858 
L 448.813057 81.553428 
L 450.877598 80.941664 
L 452.529231 80.253848 
L 452.529231 80.253848 
" style="fill:none;stroke:#2ca02c;stroke-dasharray:9.6,2.4,1.5,2.4;stroke-dashoffset:0;stroke-width:1.5;"/>
   </g>
   <g id="line2d_34">
    <path clip-path="url(#pf0dcfcb80f)" d="M 40.033969 21.607273 
L 41.685602 53.760809 
L 42.924326 73.884375 
L 43.337235 77.275121 
L 43.750143 74.316088 
L 45.814684 50.389954 
L 47.053408 39.556677 
L 47.879224 33.96749 
L 48.705041 29.624209 
L 49.530857 26.453302 
L 50.356673 24.36887 
L 50.769582 23.704843 
L 51.18249 23.276579 
L 51.595398 23.071479 
L 52.008306 23.07678 
L 52.421214 23.279624 
L 52.834122 23.667127 
L 53.659939 24.944795 
L 54.485755 26.808349 
L 55.72448 30.487872 
L 56.963204 34.951272 
L 59.027745 43.370327 
L 62.743919 58.636189 
L 64.395551 64.509191 
L 65.634276 68.315461 
L 66.873 71.532911 
L 68.111725 74.119949 
L 69.350449 76.066344 
L 70.176266 77.026708 
L 71.41499 78.047536 
L 72.653715 78.739481 
L 77.195705 80.851282 
L 78.021521 80.821025 
L 78.847337 80.414407 
L 80.49897 79.191842 
L 82.563511 77.666222 
L 83.802235 76.952492 
L 85.04096 76.487985 
L 86.279684 76.328263 
L 87.518409 76.479019 
L 89.58295 76.944074 
L 89.995858 76.895218 
L 90.408766 76.723294 
L 90.821674 76.39678 
L 91.234582 75.8947 
L 92.060399 74.33901 
L 92.886215 72.07564 
L 93.712031 69.154518 
L 94.950756 63.592087 
L 96.18948 56.598551 
L 96.602388 68.967693 
L 98.666929 71.327713 
L 100.73147 73.304609 
L 102.796011 74.921558 
L 104.860552 76.207499 
L 106.925093 77.20161 
L 108.989634 77.956537 
L 111.879991 78.735085 
L 117.247797 79.849804 
L 122.202695 80.763006 
L 123.854328 80.80595 
L 125.093052 80.632881 
L 126.744685 80.176715 
L 128.809226 79.377901 
L 131.286675 78.193894 
L 134.177032 76.558282 
L 137.067389 74.675775 
L 140.370654 72.257591 
L 144.499736 68.928088 
L 155.235349 60.050884 
L 158.125706 58.013572 
L 160.603155 56.511617 
L 163.080604 55.282404 
L 165.145145 54.492551 
L 167.209686 53.932412 
L 169.274226 53.611595 
L 171.338767 53.533633 
L 173.403308 53.695707 
L 175.467849 54.088524 
L 177.53239 54.696331 
L 180.009839 55.677996 
L 182.900196 57.10722 
L 186.616369 59.239069 
L 193.2229 63.073349 
L 195.700349 64.251333 
L 197.76489 65.029047 
L 199.829431 65.58247 
L 201.893972 65.890343 
L 203.958513 65.948966 
L 206.023053 65.771426 
L 208.087594 65.383106 
L 210.565043 64.682834 
L 213.455401 63.608348 
L 216.758666 62.118233 
L 220.474839 60.17261 
L 224.191013 57.969846 
L 227.907186 55.517508 
L 232.036268 52.522788 
L 237.404074 48.323607 
L 245.662238 41.556299 
L 248.139687 39.340833 
L 248.552595 81.820218 
L 325.766423 81.820218 
L 326.179331 31.922088 
L 328.65678 38.850703 
L 331.134229 45.138208 
L 333.611678 50.797994 
L 336.089127 55.851099 
L 338.566576 60.325485 
L 340.631117 63.635943 
L 342.695658 66.58797 
L 344.760198 69.200346 
L 346.824739 71.485583 
L 348.88928 73.44168 
L 350.540913 74.750549 
L 352.192546 75.793948 
L 353.43127 76.368552 
L 354.669995 76.735215 
L 355.908719 76.876438 
L 357.147444 76.795933 
L 358.386168 76.520995 
L 360.037801 75.922687 
L 362.102342 74.932047 
L 365.405607 73.072336 
L 374.076679 68.073531 
L 377.379944 66.446113 
L 380.270301 65.248509 
L 383.160658 64.308357 
L 385.638107 63.734637 
L 388.115556 63.392969 
L 390.593005 63.293826 
L 393.070454 63.440901 
L 395.547903 63.830632 
L 398.025352 64.45189 
L 400.502801 65.285815 
L 403.393159 66.491583 
L 406.696424 68.107469 
L 418.257853 74.045811 
L 420.735302 74.940749 
L 422.799843 75.474317 
L 424.864383 75.80007 
L 427.341832 75.939266 
L 430.23219 75.845315 
L 434.774179 75.424679 
L 440.141986 74.726272 
L 443.032343 74.155304 
L 445.509792 73.432204 
L 447.574333 72.588768 
L 449.638874 71.465146 
L 451.290506 70.327428 
L 452.529231 69.316344 
L 452.529231 69.316344 
" style="fill:none;stroke:#d62728;stroke-linecap:square;stroke-opacity:0.5;stroke-width:1.5;"/>
   </g>
   <g id="patch_3">
    <path d="M 40.033969 147.76 
L 40.033969 15.6 
" style="fill:none;stroke:#000000;stroke-linecap:square;stroke-linejoin:miter;stroke-width:0.8;"/>
   </g>
   <g id="patch_4">
    <path d="M 452.529231 147.76 
L 452.529231 15.6 
" style="fill:none;stroke:#000000;stroke-linecap:square;stroke-linejoin:miter;stroke-width:0.8;"/>
   </g>
   <g id="patch_5">
    <path d="M 40.033969 147.76 
L 452.529231 147.76 
" style="fill:none;stroke:#000000;stroke-linecap:square;stroke-linejoin:miter;stroke-width:0.8;"/>
   </g>
   <g id="patch_6">
    <path d="M 40.033969 15.6 
L 452.529231 15.6 
" style="fill:none;stroke:#000000;stroke-linecap:square;stroke-linejoin:miter;stroke-width:0.8;"/>
   </g>
   <g id="legend_1">
    <g id="patch_7">
     <path d="M 411.299231 61.38 
L 447.629231 61.38 
Q 449.029231 61.38 449.029231 59.98 
L 449.029231 20.5 
Q 449.029231 19.1 447.629231 19.1 
L 411.299231 19.1 
Q 409.899231 19.1 409.899231 20.5 
L 409.899231 59.98 
Q 409.899231 61.38 411.299231 61.38 
z
" style="fill:#ffffff;opacity:0.8;stroke:#cccccc;stroke-linejoin:miter;"/>
    </g>
    <g id="line2d_35">
     <path d="M 412.699231 24.462656 
L 426.699231 24.462656 
" style="fill:none;stroke:#1f77b4;stroke-dasharray:1.5,2.475;stroke-dashoffset:0;stroke-width:1.5;"/>
    </g>
    <g id="line2d_36"/>
    <g id="text_19">
     <!-- $f_r$ -->
     <defs>
      <path d="M 44.578125 46.390625 
Q 43.21875 47.125 41.453125 47.515625 
Q 39.703125 47.90625 37.703125 47.90625 
Q 30.515625 47.90625 25.140625 42.453125 
Q 19.78125 37.015625 18.015625 27.875 
L 12.5 0 
L 3.515625 0 
L 14.203125 54.6875 
L 23.1875 54.6875 
L 21.484375 46.1875 
Q 25.046875 50.921875 30 53.453125 
Q 34.96875 56 40.578125 56 
Q 42.046875 56 43.453125 55.828125 
Q 44.875 55.671875 46.296875 55.28125 
z
" id="DejaVuSans-Oblique-114"/>
     </defs>
     <g transform="translate(432.299231 26.912656)scale(0.07 -0.07)">
      <use transform="translate(0 0.015625)" xlink:href="#DejaVuSans-Oblique-102"/>
      <use transform="translate(35.205078 -16.390625)scale(0.7)" xlink:href="#DejaVuSans-Oblique-114"/>
     </g>
    </g>
    <g id="line2d_37">
     <path d="M 412.699231 34.542656 
L 426.699231 34.542656 
" style="fill:none;stroke:#ff7f0e;stroke-dasharray:5.55,2.4;stroke-dashoffset:0;stroke-width:1.5;"/>
    </g>
    <g id="line2d_38"/>
    <g id="text_20">
     <!-- $f_\theta$ -->
     <defs>
      <path d="M 45.515625 34.671875 
L 14.453125 34.671875 
Q 12.359375 20.0625 14.5 13.875 
Q 17.1875 6.25 24.46875 6.25 
Q 31.78125 6.25 37.359375 13.921875 
Q 42.234375 20.65625 45.515625 34.671875 
z
M 47.015625 42.96875 
Q 48.34375 56.84375 46.625 61.71875 
Q 43.953125 69.4375 36.765625 69.4375 
Q 29.296875 69.4375 23.828125 61.8125 
Q 19.53125 55.671875 16.15625 42.96875 
z
M 38.1875 76.765625 
Q 49.90625 76.765625 54.59375 66.40625 
Q 59.28125 56.109375 55.71875 37.84375 
Q 52.203125 19.625 43.453125 9.28125 
Q 34.765625 -1.125 23.046875 -1.125 
Q 11.28125 -1.125 6.640625 9.28125 
Q 2 19.625 5.515625 37.84375 
Q 9.078125 56.109375 17.71875 66.40625 
Q 26.421875 76.765625 38.1875 76.765625 
z
" id="DejaVuSans-Oblique-952"/>
     </defs>
     <g transform="translate(432.299231 36.992656)scale(0.07 -0.07)">
      <use transform="translate(0 0.015625)" xlink:href="#DejaVuSans-Oblique-102"/>
      <use transform="translate(35.205078 -16.390625)scale(0.7)" xlink:href="#DejaVuSans-Oblique-952"/>
     </g>
    </g>
    <g id="line2d_39">
     <path d="M 412.699231 44.552656 
L 426.699231 44.552656 
" style="fill:none;stroke:#2ca02c;stroke-dasharray:9.6,2.4,1.5,2.4;stroke-dashoffset:0;stroke-width:1.5;"/>
    </g>
    <g id="line2d_40"/>
    <g id="text_21">
     <!-- $f_z$ -->
     <defs>
      <path d="M 11.625 54.6875 
L 54.296875 54.6875 
L 52.6875 46.484375 
L 11.53125 7.171875 
L 45.515625 7.171875 
L 44.09375 0 
L -0.296875 0 
L 1.3125 8.203125 
L 42.484375 47.515625 
L 10.203125 47.515625 
z
" id="DejaVuSans-Oblique-122"/>
     </defs>
     <g transform="translate(432.299231 47.002656)scale(0.07 -0.07)">
      <use transform="translate(0 0.015625)" xlink:href="#DejaVuSans-Oblique-102"/>
      <use transform="translate(35.205078 -16.390625)scale(0.7)" xlink:href="#DejaVuSans-Oblique-122"/>
     </g>
    </g>
    <g id="line2d_41">
     <path d="M 412.699231 54.632656 
L 426.699231 54.632656 
" style="fill:none;stroke:#d62728;stroke-linecap:square;stroke-opacity:0.5;stroke-width:1.5;"/>
    </g>
    <g id="line2d_42"/>
    <g id="text_22">
     <!-- $f_{\mathrm{total}}$ -->
     <defs>
      <path d="M 18.3125 70.21875 
L 18.3125 54.6875 
L 36.8125 54.6875 
L 36.8125 47.703125 
L 18.3125 47.703125 
L 18.3125 18.015625 
Q 18.3125 11.328125 20.140625 9.421875 
Q 21.96875 7.515625 27.59375 7.515625 
L 36.8125 7.515625 
L 36.8125 0 
L 27.59375 0 
Q 17.1875 0 13.234375 3.875 
Q 9.28125 7.765625 9.28125 18.015625 
L 9.28125 47.703125 
L 2.6875 47.703125 
L 2.6875 54.6875 
L 9.28125 54.6875 
L 9.28125 70.21875 
z
" id="DejaVuSans-116"/>
      <path d="M 30.609375 48.390625 
Q 23.390625 48.390625 19.1875 42.75 
Q 14.984375 37.109375 14.984375 27.296875 
Q 14.984375 17.484375 19.15625 11.84375 
Q 23.34375 6.203125 30.609375 6.203125 
Q 37.796875 6.203125 41.984375 11.859375 
Q 46.1875 17.53125 46.1875 27.296875 
Q 46.1875 37.015625 41.984375 42.703125 
Q 37.796875 48.390625 30.609375 48.390625 
z
M 30.609375 56 
Q 42.328125 56 49.015625 48.375 
Q 55.71875 40.765625 55.71875 27.296875 
Q 55.71875 13.875 49.015625 6.21875 
Q 42.328125 -1.421875 30.609375 -1.421875 
Q 18.84375 -1.421875 12.171875 6.21875 
Q 5.515625 13.875 5.515625 27.296875 
Q 5.515625 40.765625 12.171875 48.375 
Q 18.84375 56 30.609375 56 
z
" id="DejaVuSans-111"/>
      <path d="M 34.28125 27.484375 
Q 23.390625 27.484375 19.1875 25 
Q 14.984375 22.515625 14.984375 16.5 
Q 14.984375 11.71875 18.140625 8.90625 
Q 21.296875 6.109375 26.703125 6.109375 
Q 34.1875 6.109375 38.703125 11.40625 
Q 43.21875 16.703125 43.21875 25.484375 
L 43.21875 27.484375 
z
M 52.203125 31.203125 
L 52.203125 0 
L 43.21875 0 
L 43.21875 8.296875 
Q 40.140625 3.328125 35.546875 0.953125 
Q 30.953125 -1.421875 24.3125 -1.421875 
Q 15.921875 -1.421875 10.953125 3.296875 
Q 6 8.015625 6 15.921875 
Q 6 25.140625 12.171875 29.828125 
Q 18.359375 34.515625 30.609375 34.515625 
L 43.21875 34.515625 
L 43.21875 35.40625 
Q 43.21875 41.609375 39.140625 45 
Q 35.0625 48.390625 27.6875 48.390625 
Q 23 48.390625 18.546875 47.265625 
Q 14.109375 46.140625 10.015625 43.890625 
L 10.015625 52.203125 
Q 14.9375 54.109375 19.578125 55.046875 
Q 24.21875 56 28.609375 56 
Q 40.484375 56 46.34375 49.84375 
Q 52.203125 43.703125 52.203125 31.203125 
z
" id="DejaVuSans-97"/>
      <path d="M 9.421875 75.984375 
L 18.40625 75.984375 
L 18.40625 0 
L 9.421875 0 
z
" id="DejaVuSans-108"/>
     </defs>
     <g transform="translate(432.299231 57.082656)scale(0.07 -0.07)">
      <use transform="translate(0 0.015625)" xlink:href="#DejaVuSans-Oblique-102"/>
      <use transform="translate(35.205078 -16.390625)scale(0.7)" xlink:href="#DejaVuSans-116"/>
      <use transform="translate(62.651367 -16.390625)scale(0.7)" xlink:href="#DejaVuSans-111"/>
      <use transform="translate(105.478516 -16.390625)scale(0.7)" xlink:href="#DejaVuSans-116"/>
      <use transform="translate(132.924805 -16.390625)scale(0.7)" xlink:href="#DejaVuSans-97"/>
      <use transform="translate(175.820312 -16.390625)scale(0.7)" xlink:href="#DejaVuSans-108"/>
     </g>
    </g>
   </g>
  </g>
 </g>
 <defs>
  <clipPath id="pf0dcfcb80f">
   <rect height="132.16" width="412.495262" x="40.033969" y="15.6"/>
  </clipPath>
 </defs>
</svg>
