<?xml version="1.0" encoding="utf-8" standalone="no"?>
<!DOCTYPE svg PUBLIC "-//W3C//DTD SVG 1.1//EN"
  "http://www.w3.org/Graphics/SVG/1.1/DTD/svg11.dtd">
<!-- Created with matplotlib (https://matplotlib.org/) -->
<svg height="378pt" version="1.1" viewBox="0 0 672.48 378" width="672.48pt" xmlns="http://www.w3.org/2000/svg" xmlns:xlink="http://www.w3.org/1999/xlink">
 <defs>
  <style type="text/css">
*{stroke-linecap:butt;stroke-linejoin:round;}
  </style>
 </defs>
 <g id="figure_1">
  <g id="patch_1">
   <path d="M 0 378 
L 672.48 378 
L 672.48 0 
L 0 0 
z
" style="fill:#ffffff;"/>
  </g>
  <g id="patch_2">
   <path d="M 84.06 336.42 
L 605.232 336.42 
L 605.232 45.36 
L 84.06 45.36 
z
" style="fill:#ffffff;"/>
  </g>
  <g id="pane3d_1">
   <g id="patch_3">
    <path d="M 156.029734 238.670165 
L 387.50633 187.141203 
L 389.621829 57.689975 
L 143.91357 106.138188 
" style="fill:#f2f2f2;opacity:0.5;stroke:#f2f2f2;stroke-linejoin:miter;"/>
   </g>
  </g>
  <g id="pane3d_2">
   <g id="patch_4">
    <path d="M 387.50633 187.141203 
L 551.66756 264.742674 
L 564.341934 130.751789 
L 389.621829 57.689975 
" style="fill:#e6e6e6;opacity:0.5;stroke:#e6e6e6;stroke-linejoin:miter;"/>
   </g>
  </g>
  <g id="pane3d_3">
   <g id="patch_5">
    <path d="M 156.029734 238.670165 
L 311.538253 323.78077 
L 551.66756 264.742674 
L 387.50633 187.141203 
" style="fill:#ececec;opacity:0.5;stroke:#ececec;stroke-linejoin:miter;"/>
   </g>
  </g>
  <g id="axis3d_1">
   <g id="line2d_1">
    <path d="M 156.029734 238.670165 
L 311.538253 323.78077 
" style="fill:none;stroke:#000000;stroke-linecap:square;stroke-width:0.8;"/>
   </g>
   <g id="text_1">
    <!-- x [AU] -->
    <defs>
     <path d="M 54.890625 54.6875 
L 35.109375 28.078125 
L 55.90625 0 
L 45.3125 0 
L 29.390625 21.484375 
L 13.484375 0 
L 2.875 0 
L 24.125 28.609375 
L 4.6875 54.6875 
L 15.28125 54.6875 
L 29.78125 35.203125 
L 44.28125 54.6875 
z
" id="DejaVuSans-120"/>
     <path id="DejaVuSans-32"/>
     <path d="M 8.59375 75.984375 
L 29.296875 75.984375 
L 29.296875 69 
L 17.578125 69 
L 17.578125 -6.203125 
L 29.296875 -6.203125 
L 29.296875 -13.1875 
L 8.59375 -13.1875 
z
" id="DejaVuSans-91"/>
     <path d="M 34.1875 63.1875 
L 20.796875 26.90625 
L 47.609375 26.90625 
z
M 28.609375 72.90625 
L 39.796875 72.90625 
L 67.578125 0 
L 57.328125 0 
L 50.6875 18.703125 
L 17.828125 18.703125 
L 11.1875 0 
L 0.78125 0 
z
" id="DejaVuSans-65"/>
     <path d="M 8.6875 72.90625 
L 18.609375 72.90625 
L 18.609375 28.609375 
Q 18.609375 16.890625 22.84375 11.734375 
Q 27.09375 6.59375 36.625 6.59375 
Q 46.09375 6.59375 50.34375 11.734375 
Q 54.59375 16.890625 54.59375 28.609375 
L 54.59375 72.90625 
L 64.5 72.90625 
L 64.5 27.390625 
Q 64.5 13.140625 57.4375 5.859375 
Q 50.390625 -1.421875 36.625 -1.421875 
Q 22.796875 -1.421875 15.734375 5.859375 
Q 8.6875 13.140625 8.6875 27.390625 
z
" id="DejaVuSans-85"/>
     <path d="M 30.421875 75.984375 
L 30.421875 -13.1875 
L 9.71875 -13.1875 
L 9.71875 -6.203125 
L 21.390625 -6.203125 
L 21.390625 69 
L 9.71875 69 
L 9.71875 75.984375 
z
" id="DejaVuSans-93"/>
    </defs>
    <g transform="translate(175.43775 306.017531)rotate(-331.307888)scale(0.1 -0.1)">
     <use xlink:href="#DejaVuSans-120"/>
     <use x="59.179688" xlink:href="#DejaVuSans-32"/>
     <use x="90.966797" xlink:href="#DejaVuSans-91"/>
     <use x="129.980469" xlink:href="#DejaVuSans-65"/>
     <use x="198.388672" xlink:href="#DejaVuSans-85"/>
     <use x="271.582031" xlink:href="#DejaVuSans-93"/>
    </g>
   </g>
   <g id="Line3DCollection_1">
    <path d="M 177.952109 250.668393 
L 410.71098 198.110388 
L 414.2329 67.981461 
" style="fill:none;stroke:#b0b0b0;stroke-width:0.8;"/>
    <path d="M 201.935906 263.794847 
L 436.074085 210.099908 
L 441.165585 79.243764 
" style="fill:none;stroke:#b0b0b0;stroke-width:0.8;"/>
    <path d="M 226.453367 277.213379 
L 461.976154 222.344204 
L 468.705506 90.759993 
" style="fill:none;stroke:#b0b0b0;stroke-width:0.8;"/>
    <path d="M 251.522504 290.933845 
L 488.434549 234.851483 
L 496.873436 102.538832 
" style="fill:none;stroke:#b0b0b0;stroke-width:0.8;"/>
    <path d="M 277.162149 304.966553 
L 515.467389 247.630312 
L 525.691102 114.589369 
" style="fill:none;stroke:#b0b0b0;stroke-width:0.8;"/>
    <path d="M 303.392 319.322284 
L 543.093587 260.689629 
L 555.181248 126.921112 
" style="fill:none;stroke:#b0b0b0;stroke-width:0.8;"/>
   </g>
   <g id="xtick_1">
    <g id="line2d_2">
     <path d="M 179.899278 250.228713 
L 174.053459 251.548725 
" style="fill:none;stroke:#000000;stroke-linecap:square;stroke-width:0.8;"/>
    </g>
    <g id="text_2">
     <!-- −2 -->
     <defs>
      <path d="M 10.59375 35.5 
L 73.1875 35.5 
L 73.1875 27.203125 
L 10.59375 27.203125 
z
" id="DejaVuSans-8722"/>
      <path d="M 19.1875 8.296875 
L 53.609375 8.296875 
L 53.609375 0 
L 7.328125 0 
L 7.328125 8.296875 
Q 12.9375 14.109375 22.625 23.890625 
Q 32.328125 33.6875 34.8125 36.53125 
Q 39.546875 41.84375 41.421875 45.53125 
Q 43.3125 49.21875 43.3125 52.78125 
Q 43.3125 58.59375 39.234375 62.25 
Q 35.15625 65.921875 28.609375 65.921875 
Q 23.96875 65.921875 18.8125 64.3125 
Q 13.671875 62.703125 7.8125 59.421875 
L 7.8125 69.390625 
Q 13.765625 71.78125 18.9375 73 
Q 24.125 74.21875 28.421875 74.21875 
Q 39.75 74.21875 46.484375 68.546875 
Q 53.21875 62.890625 53.21875 53.421875 
Q 53.21875 48.921875 51.53125 44.890625 
Q 49.859375 40.875 45.40625 35.40625 
Q 44.1875 33.984375 37.640625 27.21875 
Q 31.109375 20.453125 19.1875 8.296875 
z
" id="DejaVuSans-50"/>
     </defs>
     <g transform="translate(157.908254 268.065121)scale(0.1 -0.1)">
      <use xlink:href="#DejaVuSans-8722"/>
      <use x="83.789062" xlink:href="#DejaVuSans-50"/>
     </g>
    </g>
   </g>
   <g id="xtick_2">
    <g id="line2d_3">
     <path d="M 203.895556 263.34544 
L 198.012221 264.694666 
" style="fill:none;stroke:#000000;stroke-linecap:square;stroke-width:0.8;"/>
    </g>
    <g id="text_3">
     <!-- −1 -->
     <defs>
      <path d="M 12.40625 8.296875 
L 28.515625 8.296875 
L 28.515625 63.921875 
L 10.984375 60.40625 
L 10.984375 69.390625 
L 28.421875 72.90625 
L 38.28125 72.90625 
L 38.28125 8.296875 
L 54.390625 8.296875 
L 54.390625 0 
L 12.40625 0 
z
" id="DejaVuSans-49"/>
     </defs>
     <g transform="translate(181.735822 281.290068)scale(0.1 -0.1)">
      <use xlink:href="#DejaVuSans-8722"/>
      <use x="83.789062" xlink:href="#DejaVuSans-49"/>
     </g>
    </g>
   </g>
   <g id="xtick_3">
    <g id="line2d_4">
     <path d="M 228.425574 276.753918 
L 222.504491 278.133339 
" style="fill:none;stroke:#000000;stroke-linecap:square;stroke-width:0.8;"/>
    </g>
    <g id="text_4">
     <!-- 0 -->
     <defs>
      <path d="M 31.78125 66.40625 
Q 24.171875 66.40625 20.328125 58.90625 
Q 16.5 51.421875 16.5 36.375 
Q 16.5 21.390625 20.328125 13.890625 
Q 24.171875 6.390625 31.78125 6.390625 
Q 39.453125 6.390625 43.28125 13.890625 
Q 47.125 21.390625 47.125 36.375 
Q 47.125 51.421875 43.28125 58.90625 
Q 39.453125 66.40625 31.78125 66.40625 
z
M 31.78125 74.21875 
Q 44.046875 74.21875 50.515625 64.515625 
Q 56.984375 54.828125 56.984375 36.375 
Q 56.984375 17.96875 50.515625 8.265625 
Q 44.046875 -1.421875 31.78125 -1.421875 
Q 19.53125 -1.421875 13.0625 8.265625 
Q 6.59375 17.96875 6.59375 36.375 
Q 6.59375 54.828125 13.0625 64.515625 
Q 19.53125 74.21875 31.78125 74.21875 
z
" id="DejaVuSans-48"/>
     </defs>
     <g transform="translate(210.283043 294.809073)scale(0.1 -0.1)">
      <use xlink:href="#DejaVuSans-48"/>
     </g>
    </g>
   </g>
   <g id="xtick_4">
    <g id="line2d_5">
     <path d="M 253.50734 290.46399 
L 247.548291 291.87463 
" style="fill:none;stroke:#000000;stroke-linecap:square;stroke-width:0.8;"/>
    </g>
    <g id="text_5">
     <!-- 1 -->
     <g transform="translate(235.188099 308.632056)scale(0.1 -0.1)">
      <use xlink:href="#DejaVuSans-49"/>
     </g>
    </g>
   </g>
   <g id="xtick_5">
    <g id="line2d_6">
     <path d="M 279.159681 304.485947 
L 273.162461 305.928878 
" style="fill:none;stroke:#000000;stroke-linecap:square;stroke-width:0.8;"/>
    </g>
    <g id="text_6">
     <!-- 2 -->
     <g transform="translate(260.659517 322.769384)scale(0.1 -0.1)">
      <use xlink:href="#DejaVuSans-50"/>
     </g>
    </g>
   </g>
   <g id="xtick_6">
    <g id="line2d_7">
     <path d="M 305.402291 318.830553 
L 299.366712 320.306897 
" style="fill:none;stroke:#000000;stroke-linecap:square;stroke-width:0.8;"/>
    </g>
    <g id="text_7">
     <!-- 3 -->
     <defs>
      <path d="M 40.578125 39.3125 
Q 47.65625 37.796875 51.625 33 
Q 55.609375 28.21875 55.609375 21.1875 
Q 55.609375 10.40625 48.1875 4.484375 
Q 40.765625 -1.421875 27.09375 -1.421875 
Q 22.515625 -1.421875 17.65625 -0.515625 
Q 12.796875 0.390625 7.625 2.203125 
L 7.625 11.71875 
Q 11.71875 9.328125 16.59375 8.109375 
Q 21.484375 6.890625 26.8125 6.890625 
Q 36.078125 6.890625 40.9375 10.546875 
Q 45.796875 14.203125 45.796875 21.1875 
Q 45.796875 27.640625 41.28125 31.265625 
Q 36.765625 34.90625 28.71875 34.90625 
L 20.21875 34.90625 
L 20.21875 43.015625 
L 29.109375 43.015625 
Q 36.375 43.015625 40.234375 45.921875 
Q 44.09375 48.828125 44.09375 54.296875 
Q 44.09375 59.90625 40.109375 62.90625 
Q 36.140625 65.921875 28.71875 65.921875 
Q 24.65625 65.921875 20.015625 65.03125 
Q 15.375 64.15625 9.8125 62.3125 
L 9.8125 71.09375 
Q 15.4375 72.65625 20.34375 73.4375 
Q 25.25 74.21875 29.59375 74.21875 
Q 40.828125 74.21875 47.359375 69.109375 
Q 53.90625 64.015625 53.90625 55.328125 
Q 53.90625 49.265625 50.4375 45.09375 
Q 46.96875 40.921875 40.578125 39.3125 
z
" id="DejaVuSans-51"/>
     </defs>
     <g transform="translate(286.716837 337.231904)scale(0.1 -0.1)">
      <use xlink:href="#DejaVuSans-51"/>
     </g>
    </g>
   </g>
  </g>
  <g id="axis3d_2">
   <g id="line2d_8">
    <path d="M 551.66756 264.742674 
L 311.538253 323.78077 
" style="fill:none;stroke:#000000;stroke-linecap:square;stroke-width:0.8;"/>
   </g>
   <g id="text_8">
    <!-- y [AU] -->
    <defs>
     <path d="M 32.171875 -5.078125 
Q 28.375 -14.84375 24.75 -17.8125 
Q 21.140625 -20.796875 15.09375 -20.796875 
L 7.90625 -20.796875 
L 7.90625 -13.28125 
L 13.1875 -13.28125 
Q 16.890625 -13.28125 18.9375 -11.515625 
Q 21 -9.765625 23.484375 -3.21875 
L 25.09375 0.875 
L 2.984375 54.6875 
L 12.5 54.6875 
L 29.59375 11.921875 
L 46.6875 54.6875 
L 56.203125 54.6875 
z
" id="DejaVuSans-121"/>
    </defs>
    <g transform="translate(448.401602 336.457678)rotate(-13.812754)scale(0.1 -0.1)">
     <use xlink:href="#DejaVuSans-121"/>
     <use x="59.179688" xlink:href="#DejaVuSans-32"/>
     <use x="90.966797" xlink:href="#DejaVuSans-91"/>
     <use x="129.980469" xlink:href="#DejaVuSans-65"/>
     <use x="198.388672" xlink:href="#DejaVuSans-85"/>
     <use x="271.582031" xlink:href="#DejaVuSans-93"/>
    </g>
   </g>
   <g id="Line3DCollection_2">
    <path d="M 154.41893 104.066764 
L 165.901082 236.472706 
L 321.80942 321.255505 
" style="fill:none;stroke:#b0b0b0;stroke-width:0.8;"/>
    <path d="M 194.682302 96.127721 
L 203.755584 228.045923 
L 361.171623 311.577929 
" style="fill:none;stroke:#b0b0b0;stroke-width:0.8;"/>
    <path d="M 234.339305 88.308241 
L 241.072706 219.738765 
L 399.935464 302.047467 
" style="fill:none;stroke:#b0b0b0;stroke-width:0.8;"/>
    <path d="M 273.403534 80.605642 
L 277.863809 211.548704 
L 438.114483 292.660788 
" style="fill:none;stroke:#b0b0b0;stroke-width:0.8;"/>
    <path d="M 311.888182 73.017324 
L 314.13994 203.473281 
L 475.721816 283.414665 
" style="fill:none;stroke:#b0b0b0;stroke-width:0.8;"/>
    <path d="M 349.806052 65.540763 
L 349.911833 195.510107 
L 512.770209 274.305961 
" style="fill:none;stroke:#b0b0b0;stroke-width:0.8;"/>
   </g>
   <g id="xtick_7">
    <g id="line2d_9">
     <path d="M 320.473214 320.528877 
L 324.486451 322.711271 
" style="fill:none;stroke:#000000;stroke-linecap:square;stroke-width:0.8;"/>
    </g>
    <g id="text_9">
     <!-- −3 -->
     <g transform="translate(323.630646 340.780954)scale(0.1 -0.1)">
      <use xlink:href="#DejaVuSans-8722"/>
      <use x="83.789062" xlink:href="#DejaVuSans-51"/>
     </g>
    </g>
   </g>
   <g id="xtick_8">
    <g id="line2d_10">
     <path d="M 359.823182 310.862386 
L 363.873129 313.011469 
" style="fill:none;stroke:#000000;stroke-linecap:square;stroke-width:0.8;"/>
    </g>
    <g id="text_10">
     <!-- −2 -->
     <g transform="translate(362.942663 331.007004)scale(0.1 -0.1)">
      <use xlink:href="#DejaVuSans-8722"/>
      <use x="83.789062" xlink:href="#DejaVuSans-50"/>
     </g>
    </g>
   </g>
   <g id="xtick_9">
    <g id="line2d_11">
     <path d="M 398.575313 301.342757 
L 402.660393 303.459286 
" style="fill:none;stroke:#000000;stroke-linecap:square;stroke-width:0.8;"/>
    </g>
    <g id="text_11">
     <!-- −1 -->
     <g transform="translate(401.656776 321.381707)scale(0.1 -0.1)">
      <use xlink:href="#DejaVuSans-8722"/>
      <use x="83.789062" xlink:href="#DejaVuSans-49"/>
     </g>
    </g>
   </g>
   <g id="xtick_10">
    <g id="line2d_12">
     <path d="M 436.743129 291.966667 
L 440.861824 294.051376 
" style="fill:none;stroke:#000000;stroke-linecap:square;stroke-width:0.8;"/>
    </g>
    <g id="text_12">
     <!-- 0 -->
     <g transform="translate(443.976365 311.901699)scale(0.1 -0.1)">
      <use xlink:href="#DejaVuSans-48"/>
     </g>
    </g>
   </g>
   <g id="xtick_11">
    <g id="line2d_13">
     <path d="M 474.339744 282.730895 
L 478.490594 284.784496 
" style="fill:none;stroke:#000000;stroke-linecap:square;stroke-width:0.8;"/>
    </g>
    <g id="text_13">
     <!-- 1 -->
     <g transform="translate(481.534876 302.563714)scale(0.1 -0.1)">
      <use xlink:href="#DejaVuSans-49"/>
     </g>
    </g>
   </g>
   <g id="xtick_12">
    <g id="line2d_14">
     <path d="M 511.377888 273.632314 
L 515.559485 275.655498 
" style="fill:none;stroke:#000000;stroke-linecap:square;stroke-width:0.8;"/>
    </g>
    <g id="text_14">
     <!-- 2 -->
     <g transform="translate(518.534893 293.364585)scale(0.1 -0.1)">
      <use xlink:href="#DejaVuSans-50"/>
     </g>
    </g>
   </g>
  </g>
  <g id="axis3d_3">
   <g id="line2d_15">
    <path d="M 551.66756 264.742674 
L 564.341934 130.751789 
" style="fill:none;stroke:#000000;stroke-linecap:square;stroke-width:0.8;"/>
   </g>
   <g id="text_15">
    <!-- z [AU] -->
    <defs>
     <path d="M 5.515625 54.6875 
L 48.1875 54.6875 
L 48.1875 46.484375 
L 14.40625 7.171875 
L 48.1875 7.171875 
L 48.1875 0 
L 4.296875 0 
L 4.296875 8.203125 
L 38.09375 47.515625 
L 5.515625 47.515625 
z
" id="DejaVuSans-122"/>
    </defs>
    <g transform="translate(630.363203 219.63238)rotate(-84.596395)scale(0.1 -0.1)">
     <use xlink:href="#DejaVuSans-122"/>
     <use x="52.490234" xlink:href="#DejaVuSans-32"/>
     <use x="84.277344" xlink:href="#DejaVuSans-91"/>
     <use x="123.291016" xlink:href="#DejaVuSans-65"/>
     <use x="191.699219" xlink:href="#DejaVuSans-85"/>
     <use x="264.892578" xlink:href="#DejaVuSans-93"/>
    </g>
   </g>
   <g id="Line3DCollection_3">
    <path d="M 553.945269 240.6632 
L 387.887775 163.79985 
L 153.849896 214.826131 
" style="fill:none;stroke:#b0b0b0;stroke-width:0.8;"/>
    <path d="M 556.057598 218.332086 
L 388.241027 142.183772 
L 151.82929 192.723843 
" style="fill:none;stroke:#b0b0b0;stroke-width:0.8;"/>
    <path d="M 558.214515 195.529605 
L 388.60124 120.141651 
L 149.766983 170.165418 
" style="fill:none;stroke:#b0b0b0;stroke-width:0.8;"/>
    <path d="M 560.417446 172.240673 
L 388.968624 97.660765 
L 147.661672 147.136588 
" style="fill:none;stroke:#b0b0b0;stroke-width:0.8;"/>
    <path d="M 562.667879 148.449556 
L 389.343395 74.727882 
L 145.511997 123.622485 
" style="fill:none;stroke:#b0b0b0;stroke-width:0.8;"/>
   </g>
   <g id="xtick_13">
    <g id="line2d_16">
     <path d="M 552.525284 240.005928 
L 556.78998 241.979937 
" style="fill:none;stroke:#000000;stroke-linecap:square;stroke-width:0.8;"/>
    </g>
    <g id="text_16">
     <!-- −0.4 -->
     <defs>
      <path d="M 10.6875 12.40625 
L 21 12.40625 
L 21 0 
L 10.6875 0 
z
" id="DejaVuSans-46"/>
      <path d="M 37.796875 64.3125 
L 12.890625 25.390625 
L 37.796875 25.390625 
z
M 35.203125 72.90625 
L 47.609375 72.90625 
L 47.609375 25.390625 
L 58.015625 25.390625 
L 58.015625 17.1875 
L 47.609375 17.1875 
L 47.609375 0 
L 37.796875 0 
L 37.796875 17.1875 
L 4.890625 17.1875 
L 4.890625 26.703125 
z
" id="DejaVuSans-52"/>
     </defs>
     <g transform="translate(564.069262 249.699476)scale(0.1 -0.1)">
      <use xlink:href="#DejaVuSans-8722"/>
      <use x="83.789062" xlink:href="#DejaVuSans-48"/>
      <use x="147.412109" xlink:href="#DejaVuSans-46"/>
      <use x="179.199219" xlink:href="#DejaVuSans-52"/>
     </g>
    </g>
   </g>
   <g id="xtick_14">
    <g id="line2d_17">
     <path d="M 554.621606 217.680491 
L 558.934429 219.637474 
" style="fill:none;stroke:#000000;stroke-linecap:square;stroke-width:0.8;"/>
    </g>
    <g id="text_17">
     <!-- −0.2 -->
     <g transform="translate(566.417007 227.355971)scale(0.1 -0.1)">
      <use xlink:href="#DejaVuSans-8722"/>
      <use x="83.789062" xlink:href="#DejaVuSans-48"/>
      <use x="147.412109" xlink:href="#DejaVuSans-46"/>
      <use x="179.199219" xlink:href="#DejaVuSans-50"/>
     </g>
    </g>
   </g>
   <g id="xtick_15">
    <g id="line2d_18">
     <path d="M 556.762152 194.884073 
L 561.124194 196.822868 
" style="fill:none;stroke:#000000;stroke-linecap:square;stroke-width:0.8;"/>
    </g>
    <g id="text_18">
     <!-- 0.0 -->
     <g transform="translate(573.004213 204.540252)scale(0.1 -0.1)">
      <use xlink:href="#DejaVuSans-48"/>
      <use x="63.623047" xlink:href="#DejaVuSans-46"/>
      <use x="95.410156" xlink:href="#DejaVuSans-48"/>
     </g>
    </g>
   </g>
   <g id="xtick_16">
    <g id="line2d_19">
     <path d="M 558.948337 171.601613 
L 563.360727 173.520994 
" style="fill:none;stroke:#000000;stroke-linecap:square;stroke-width:0.8;"/>
    </g>
    <g id="text_19">
     <!-- 0.2 -->
     <g transform="translate(575.452784 181.237189)scale(0.1 -0.1)">
      <use xlink:href="#DejaVuSans-48"/>
      <use x="63.623047" xlink:href="#DejaVuSans-46"/>
      <use x="95.410156" xlink:href="#DejaVuSans-50"/>
     </g>
    </g>
   </g>
   <g id="xtick_17">
    <g id="line2d_20">
     <path d="M 561.181635 147.817398 
L 565.645543 149.716073 
" style="fill:none;stroke:#000000;stroke-linecap:square;stroke-width:0.8;"/>
    </g>
    <g id="text_20">
     <!-- 0.4 -->
     <g transform="translate(577.954221 157.430999)scale(0.1 -0.1)">
      <use xlink:href="#DejaVuSans-48"/>
      <use x="63.623047" xlink:href="#DejaVuSans-46"/>
      <use x="95.410156" xlink:href="#DejaVuSans-52"/>
     </g>
    </g>
   </g>
  </g>
  <g id="axes_1">
   <g id="line2d_21">
    <path clip-path="url(#p6febdc4211)" d="M 346.683375 195.025171 
L 351.462036 195.07303 
L 356.230113 194.961169 
L 360.937025 194.690232 
L 365.532514 194.262574 
L 369.967198 193.682255 
L 374.193139 192.955019 
L 378.164396 192.088245 
L 381.837572 191.090885 
L 385.172334 189.973375 
L 388.131913 188.747527 
L 390.68356 187.426407 
L 392.798959 186.024188 
L 394.45459 184.555989 
L 395.632033 183.037703 
L 396.037132 182.26491 
L 396.318205 181.485811 
L 396.474478 180.702526 
L 396.505529 179.917185 
L 396.411288 179.131927 
L 396.192036 178.348888 
L 395.848407 177.570197 
L 394.79229 176.034302 
L 393.254916 174.540892 
L 391.253621 173.106104 
L 388.810871 171.745371 
L 385.953962 170.473245 
L 382.714664 169.303235 
L 379.128812 168.247655 
L 375.235852 167.317498 
L 371.078349 166.522322 
L 366.701467 165.87016 
L 362.152438 165.367451 
L 357.480003 165.018988 
L 352.73387 164.827892 
L 347.964161 164.7956 
L 343.220879 164.921879 
L 338.55339 165.204847 
L 334.009926 165.641022 
L 329.63712 166.225376 
L 325.47956 166.951411 
L 321.579385 167.811236 
L 317.97591 168.795664 
L 314.705281 169.894315 
L 311.80017 171.095721 
L 309.289507 172.387447 
L 307.198235 173.75621 
L 305.547111 175.188006 
L 304.352541 176.668243 
L 303.626437 178.181869 
L 303.441529 178.94641 
L 303.376121 179.713517 
L 303.430399 180.481243 
L 303.604259 181.247637 
L 303.897299 182.01075 
L 304.837859 183.519375 
L 306.243043 184.991737 
L 308.099205 186.412772 
L 310.388187 187.767871 
L 313.087452 189.043026 
L 316.170261 190.224964 
L 319.605884 191.301283 
L 323.359861 192.26058 
L 327.39429 193.092577 
L 331.668169 193.788235 
L 336.137763 194.339862 
L 340.757021 194.741205 
L 345.478017 194.987542 
L 350.251429 195.075744 
L 355.027045 195.004334 
L 359.754285 194.773524 
L 364.382755 194.385235 
L 368.862797 193.843097 
L 373.146054 193.152433 
L 377.186027 192.320212 
L 380.938625 191.354998 
L 384.362693 190.266858 
L 387.420518 189.067271 
L 390.078294 187.768996 
L 392.306549 186.38594 
L 394.080522 184.933 
L 395.380479 183.425888 
L 396.19197 181.880954 
L 396.411517 181.099539 
L 396.506014 180.314987 
L 396.475213 179.529436 
L 396.319217 178.745021 
L 396.038481 177.963877 
L 395.633811 177.188127 
L 394.457627 175.661211 
L 392.80398 174.180815 
L 390.691497 172.762916 
L 388.143862 171.422746 
L 385.189508 170.174615 
L 381.861245 169.031749 
L 378.19584 168.006149 
L 374.233551 167.108463 
L 370.017634 166.347882 
L 365.593813 165.732051 
L 361.009742 165.267009 
L 356.314454 164.957138 
L 351.557808 164.805144 
L 346.789948 164.812052 
L 342.060769 164.977219 
L 337.419405 165.298363 
L 332.91374 165.771617 
L 328.589946 166.391582 
L 324.492046 167.151407 
L 320.66152 168.042874 
L 317.136933 169.056491 
L 313.953604 170.181601 
L 311.143307 171.406486 
L 308.734011 172.718492 
L 306.749646 174.104146 
L 305.209915 175.549287 
L 304.130125 177.039193 
L 303.521067 178.558723 
L 303.395175 179.324783 
L 303.38892 180.092449 
L 303.502343 180.85977 
L 303.735194 181.624797 
L 304.556708 183.14019 
L 305.845603 184.623186 
L 307.589391 186.058626 
L 309.771042 187.431772 
L 312.36911 188.728447 
L 315.357897 189.93518 
L 318.707656 191.039333 
L 322.384838 192.029239 
L 326.352377 192.894322 
L 330.570014 193.625219 
L 334.99466 194.213887 
L 339.5808 194.653702 
L 344.280929 194.939546 
L 349.046024 195.067883 
L 353.826038 195.036815 
L 358.570427 194.846128 
L 363.228691 194.497312 
L 367.750928 193.993569 
L 372.088396 193.3398 
L 376.194075 192.542565 
L 380.023215 191.610035 
L 383.533875 190.551911 
L 386.687434 189.379326 
L 389.449064 188.104732 
L 391.788173 186.74176 
L 393.678788 185.305072 
L 395.099889 183.810191 
L 396.035682 182.273322 
L 396.318132 181.494345 
L 396.475799 180.71116 
L 396.50826 179.925897 
L 396.415439 179.140693 
L 396.197615 178.357683 
L 395.855418 177.578997 
L 394.802166 176.043038 
L 393.267627 174.549461 
L 391.269107 173.114403 
L 388.829035 171.753296 
L 385.974672 170.480694 
L 382.737751 169.31011 
L 379.154071 168.253864 
L 375.263046 167.322956 
L 371.107211 166.526954 
L 366.731706 165.873899 
L 362.183737 165.370243 
L 357.512032 165.020792 
L 352.766285 164.82868 
L 347.996612 164.79536 
L 343.253018 164.920609 
L 338.584874 165.202563 
L 334.040425 165.637752 
L 329.66632 166.221162 
L 325.50717 166.946306 
L 321.605138 167.805303 
L 317.999566 168.788976 
L 314.726633 169.886953 
L 311.819043 171.087773 
L 309.305758 172.379005 
L 307.211756 173.747368 
L 305.557828 175.178862 
L 304.36041 176.658894 
L 303.631446 178.172412 
L 303.445112 178.936934 
L 303.378286 179.704047 
L 303.431158 180.471802 
L 303.603625 181.238248 
L 303.895291 182.001436 
L 304.833169 183.510278 
L 306.23578 184.982942 
L 308.089499 186.404358 
L 310.37619 187.759916 
L 313.073335 189.035599 
L 316.154213 190.218131 
L 319.588113 191.295102 
L 323.340587 192.255105 
L 327.373748 193.087851 
L 331.646602 193.784296 
L 336.115424 194.336739 
L 340.734168 194.738919 
L 345.454908 194.986106 
L 350.228324 195.075164 
L 355.004199 195.004607 
L 359.731949 194.774639 
L 364.361172 194.387176 
L 368.8422 193.845841 
L 373.126665 193.155948 
L 377.168054 192.324464 
L 380.922263 191.359945 
L 384.348122 190.272455 
L 387.407903 189.073467 
L 390.067783 187.775736 
L 392.298273 186.393165 
L 394.074594 184.940642 
L 395.376992 183.433878 
L 396.190999 181.889213 
L 396.411825 181.107901 
L 396.507612 180.323433 
L 396.47811 179.537941 
L 396.323418 178.753565 
L 396.043988 177.972436 
L 395.640624 177.196678 
L 394.467035 175.669674 
L 392.815939 174.189094 
L 390.705931 172.770917 
L 388.160667 171.430374 
L 385.208547 170.181779 
L 381.882352 169.038363 
L 378.21882 168.01213 
L 374.258182 167.113738 
L 370.043668 166.352383 
L 365.620981 165.735724 
L 361.037756 165.269806 
L 356.343012 164.959027 
L 351.586602 164.806106 
L 346.818666 164.812078 
L 342.089101 164.976315 
L 337.447049 165.296548 
L 332.940406 165.768922 
L 328.615359 166.388049 
L 324.515953 167.14709 
L 320.68369 168.037834 
L 317.157162 169.050798 
L 313.971717 170.175328 
L 311.159158 171.39971 
L 308.74748 172.711292 
L 306.760641 174.096601 
L 305.218367 175.541476 
L 304.135989 177.031197 
L 303.524318 178.550622 
L 303.397118 179.31666 
L 303.389554 180.084323 
L 303.501673 180.851661 
L 303.733225 181.616724 
L 304.552168 183.132247 
L 305.838539 184.61545 
L 307.579868 186.051172 
L 309.75914 187.424673 
L 312.354927 188.721777 
L 315.34155 189.929008 
L 318.689279 191.033728 
L 322.364587 192.024267 
L 326.330427 192.890044 
L 330.54656 193.621692 
L 334.969918 194.211163 
L 339.555007 194.651826 
L 344.254342 194.938556 
L 349.018916 195.06781 
L 353.7987 195.037679 
L 358.54316 194.847939 
L 363.201805 194.500067 
L 367.724736 193.997255 
L 372.063209 193.34439 
L 376.170196 192.548022 
L 380.000935 191.616309 
L 383.513468 190.558938 
L 386.669149 189.387034 
L 389.433122 188.113037 
L 391.774761 186.750571 
L 393.66806 185.314292 
L 395.09196 183.819717 
L 396.03063 182.283049 
L 396.314536 181.504133 
L 396.473665 180.720981 
L 396.507588 179.935725 
L 396.416225 179.150501 
L 396.199851 178.367446 
L 395.859092 177.588689 
L 394.80866 176.05251 
L 393.276843 174.558617 
L 391.280918 173.12315 
L 388.843289 171.761547 
L 385.991193 170.48837 
L 382.756343 169.317137 
L 379.174521 168.260175 
L 375.285123 167.328492 
L 371.130671 166.531662 
L 366.756291 165.877738 
L 362.209183 165.373179 
L 357.538067 165.022798 
L 352.792631 164.829741 
L 348.022991 164.795467 
L 343.27915 164.919767 
L 338.610484 165.200782 
L 334.065243 165.635053 
L 329.690084 166.217576 
L 325.52963 166.941872 
L 321.626059 167.800068 
L 318.018728 168.782997 
L 314.743834 169.88029 
L 311.834101 171.080494 
L 309.318512 172.371184 
L 307.222068 173.739085 
L 305.565585 175.170199 
L 304.365524 176.649937 
L 303.633854 178.163251 
L 303.446154 178.927705 
L 303.377955 179.694772 
L 303.429453 180.462504 
L 303.600547 181.22895 
L 303.890846 181.992161 
L 304.826017 183.501118 
L 306.225984 184.973989 
L 308.077148 186.395705 
L 310.361398 187.751652 
L 313.056242 189.027812 
L 316.134978 190.210903 
L 319.566917 191.288512 
L 323.317631 192.249222 
L 327.349251 193.082742 
L 331.6208 193.780017 
L 336.088568 194.333337 
L 340.706521 194.736436 
L 345.426746 194.98457 
L 350.199931 195.074593 
L 354.975863 195.00501 
L 359.703964 194.776014 
L 364.333828 194.389508 
L 368.815785 193.849103 
L 373.101458 193.160103 
L 377.144324 192.329461 
L 380.90026 191.365722 
L 384.328078 190.27894 
L 387.390024 189.080577 
L 390.052248 187.783381 
L 392.285233 186.401247 
L 394.064167 184.949061 
L 395.369265 183.44253 
L 396.186022 181.897996 
L 396.408232 181.116712 
L 396.505404 180.332245 
L 396.477281 179.546732 
L 396.323961 178.762309 
L 396.045893 177.981111 
L 395.643875 177.20526 
L 394.472922 175.678004 
L 392.824367 174.197087 
L 390.716784 172.778493 
L 388.17381 171.437457 
L 385.223831 170.188299 
L 381.899611 169.044254 
L 378.237876 168.017332 
L 374.278844 167.118196 
L 370.065735 166.356048 
L 365.644237 165.73855 
L 361.061978 165.271756 
L 356.367963 164.960066 
L 351.612034 164.806207 
L 346.844321 164.811223 
L 342.114712 164.974492 
L 337.472342 165.293755 
L 332.965101 165.765163 
L 328.639174 166.383341 
L 324.538606 167.141459 
L 320.704903 168.031317 
L 317.176666 169.043443 
L 313.989255 170.167193 
L 311.17449 171.390865 
L 308.760389 172.701815 
L 306.770936 174.086583 
L 305.225888 175.531015 
L 304.14061 177.020399 
L 303.52595 178.539598 
L 303.397233 179.305565 
L 303.388147 180.073187 
L 303.49874 180.840514 
L 303.728769 181.605595 
L 304.544696 183.121242 
L 305.828126 184.604686 
L 307.566627 186.040762 
L 309.743222 187.414725 
L 312.336518 188.712391 
L 315.320864 189.920278 
L 318.666559 191.025737 
L 322.340098 192.017086 
L 326.304452 192.883738 
L 330.519395 193.616311 
L 334.941868 194.206746 
L 339.526381 194.648402 
L 344.225449 194.936141 
L 348.990061 195.066409 
L 353.770182 195.037288 
L 358.515271 194.848541 
L 363.174821 194.501638 
L 367.698922 193.999761 
L 372.038814 193.347787 
L 376.14745 192.552259 
L 379.98005 191.621327 
L 383.494635 190.564673 
L 386.652537 189.393414 
L 389.418881 188.119985 
L 391.763017 186.758005 
L 393.658914 185.322126 
L 395.085489 183.827862 
L 396.026884 182.291412 
L 396.312164 181.51257 
L 396.472669 180.729468 
L 396.507967 179.944239 
L 396.417976 179.159018 
L 396.202967 178.375942 
L 395.863561 177.59714 
L 394.815792 176.060803 
L 393.286555 174.566659 
L 391.293101 173.130851 
L 388.857809 171.768823 
L 386.007891 170.495141 
L 382.775037 169.323328 
L 379.19501 168.265719 
L 375.307186 167.333326 
L 371.15407 166.535732 
L 366.780778 165.880996 
L 362.234498 165.375585 
L 357.563944 165.024325 
L 352.818802 164.830369 
L 348.049187 164.795188 
L 343.305104 164.91858 
L 338.635933 165.198698 
L 334.089931 165.632092 
L 329.713763 166.213766 
L 325.552062 166.93725 
L 321.647018 167.79468 
L 318.038004 168.776897 
L 314.761234 169.87354 
L 311.849453 171.073163 
L 309.331664 172.363347 
L 307.232893 173.730823 
L 305.573979 175.161599 
L 304.371411 176.64109 
L 303.637185 178.15425 
L 303.448197 178.918663 
L 303.37871 179.685714 
L 303.428921 180.453454 
L 303.598734 181.219931 
L 303.887759 181.983198 
L 304.820426 183.492336 
L 306.217961 184.965479 
L 308.066793 186.387553 
L 310.348835 187.743938 
L 313.041615 189.020611 
L 316.118456 190.204284 
L 319.548685 191.282536 
L 323.297891 192.243946 
L 327.328219 193.078214 
L 331.598703 193.776279 
L 336.065641 194.330424 
L 340.683006 194.734376 
L 345.402892 194.983383 
L 350.175987 195.074293 
L 354.952083 195.005603 
L 359.680598 194.777496 
L 364.311126 194.39187 
L 368.793992 193.852326 
L 373.080814 193.164162 
L 377.12506 192.334323 
L 380.882601 191.371347 
L 384.312236 190.285279 
L 387.376199 189.087574 
L 390.040626 187.790973 
L 392.275982 186.409362 
L 394.057433 184.957622 
L 395.365172 183.451451 
L 396.184668 181.907187 
L 396.408275 181.126001 
L 396.506857 180.341609 
L 396.480153 179.556144 
L 396.328258 178.771744 
L 396.051613 177.990542 
L 395.651015 177.21466 
L 394.482869 175.687264 
L 392.837045 174.206098 
L 390.732079 172.787149 
L 388.191569 171.445658 
L 385.243865 170.195948 
L 381.921699 169.051262 
L 378.261765 168.023622 
L 374.30426 167.123698 
L 370.09238 166.360706 
L 365.671805 165.742321 
L 361.090151 165.274609 
L 356.396424 164.961985 
L 351.640471 164.807187 
L 346.87243 164.811272 
L 342.142202 164.973627 
L 337.498939 165.292005 
L 332.990549 165.762568 
L 328.663238 166.379946 
L 324.561073 167.137317 
L 320.725585 168.026489 
L 317.195397 169.037992 
L 314.005891 170.161187 
L 311.188909 171.384376 
L 308.772491 172.694919 
L 306.780644 174.079355 
L 305.233142 175.523533 
L 304.145373 177.012742 
L 303.528204 178.531844 
L 303.398232 179.297793 
L 303.387893 180.065416 
L 303.497239 180.832763 
L 303.726028 181.597884 
L 304.539506 183.11367 
L 305.820544 184.597328 
L 307.556728 186.033693 
L 309.731101 187.408018 
L 312.322288 188.706117 
L 315.304658 189.914504 
L 318.648529 191.020526 
L 322.320412 192.0125 
L 326.283298 192.87983 
L 330.496977 193.613132 
L 334.918407 194.204339 
L 339.502113 194.646803 
L 344.200624 194.93538 
L 348.964941 195.066505 
L 353.745034 195.038254 
L 358.490366 194.850379 
L 363.150436 194.504339 
L 367.675326 194.003305 
L 372.016271 193.352146 
L 376.126213 192.557393 
L 379.960356 191.627186 
L 383.476704 190.571199 
L 386.636569 189.40054 
L 386.636569 189.40054 
" style="fill:none;stroke:#1f77b4;stroke-linecap:square;stroke-width:1.5;"/>
   </g>
   <g id="line2d_22">
    <path clip-path="url(#p6febdc4211)" d="M 404.827638 194.833068 
L 408.46254 192.756642 
L 410.615744 191.31346 
L 412.547286 189.830213 
L 414.253642 188.312947 
L 415.73239 186.767667 
L 416.982157 185.200304 
L 418.002571 183.61668 
L 418.7942 182.022486 
L 419.358492 180.423253 
L 419.697708 178.824339 
L 419.814861 177.230906 
L 419.713647 175.647913 
L 419.398388 174.080102 
L 418.873962 172.531993 
L 418.14575 171.00788 
L 417.219576 169.511825 
L 416.101651 168.047664 
L 414.798526 166.619003 
L 413.317045 165.229223 
L 410.775976 163.224308 
L 407.874386 161.323699 
L 404.637847 159.536112 
L 401.092498 157.869271 
L 397.264848 156.329961 
L 393.181625 154.924085 
L 388.869643 153.656721 
L 384.355704 152.532173 
L 379.666518 151.554025 
L 374.828642 150.725183 
L 369.868449 150.047923 
L 363.109757 149.38353 
L 356.241444 148.993989 
L 349.324142 148.880085 
L 342.417773 149.041027 
L 335.581599 149.474501 
L 328.874275 150.176693 
L 322.353892 151.142291 
L 316.078013 152.364455 
L 311.565891 153.444445 
L 307.247254 154.65989 
L 303.145762 156.006077 
L 299.284844 157.477723 
L 295.687655 159.068937 
L 292.377014 160.773187 
L 289.375322 162.583267 
L 286.704463 164.491262 
L 284.38568 166.488508 
L 282.43943 168.565558 
L 281.358565 169.98956 
L 280.457455 171.441239 
L 279.74134 172.917175 
L 279.215163 174.413779 
L 278.883544 175.927285 
L 278.750732 177.453753 
L 278.820573 178.989069 
L 279.09646 180.528948 
L 279.581291 182.068935 
L 280.277419 183.604411 
L 281.186601 185.130603 
L 282.309949 186.642594 
L 283.647877 188.135328 
L 285.200051 189.603635 
L 286.965333 191.04224 
L 288.941733 192.44579 
L 291.126364 193.808872 
L 294.785086 195.765711 
L 298.88634 197.60091 
L 303.407778 199.296384 
L 308.321673 200.834582 
L 313.594877 202.198801 
L 319.188901 203.373519 
L 325.060152 204.344727 
L 331.160319 205.100268 
L 337.436928 205.630147 
L 343.83405 205.92681 
L 350.293151 205.98538 
L 356.754061 205.803824 
L 363.15602 205.383049 
L 369.438773 204.726922 
L 375.543654 203.842201 
L 381.414624 202.738393 
L 386.99922 201.427537 
L 392.249378 199.923928 
L 397.122102 198.243785 
L 401.579957 196.4049 
L 405.591398 194.42626 
L 409.130911 192.327677 
L 411.218536 190.871992 
L 413.083319 189.378061 
L 414.722074 187.851922 
L 416.132702 186.299561 
L 417.31414 184.726878 
L 418.266307 183.139658 
L 418.990045 181.543544 
L 419.487052 179.944017 
L 419.759825 178.346376 
L 419.811589 176.755722 
L 419.646236 175.176947 
L 419.268259 173.614727 
L 418.682694 172.073512 
L 417.895057 170.557526 
L 416.911291 169.070761 
L 415.737714 167.616984 
L 414.380968 166.199731 
L 412.017607 164.149523 
L 409.282047 162.199163 
L 406.19951 160.357848 
L 402.795884 158.633759 
L 399.097516 157.03411 
L 395.13104 155.565212 
L 390.923231 154.23252 
L 386.500896 153.040696 
L 381.890784 151.993657 
L 377.119524 151.094624 
L 372.21357 150.346166 
L 365.508117 149.58575 
L 358.671462 149.099499 
L 351.764487 148.888776 
L 344.847357 148.953341 
L 337.979562 149.291414 
L 331.219967 149.899711 
L 324.626864 150.773456 
L 318.258014 151.906353 
L 313.662992 152.921428 
L 309.250265 154.073976 
L 305.043594 155.359547 
L 301.066527 156.773128 
L 297.342355 158.309113 
L 293.894067 159.961274 
L 290.74427 161.722724 
L 287.915105 163.585885 
L 285.428134 165.542444 
L 283.304198 167.583325 
L 282.099829 168.985913 
L 281.071366 170.418473 
L 280.224231 171.877705 
L 279.563576 173.36014 
L 279.094253 174.862135 
L 278.820771 176.379872 
L 278.747262 177.909361 
L 278.877439 179.446436 
L 279.214549 180.98676 
L 279.761331 182.525833 
L 280.519963 184.058989 
L 281.492014 185.581413 
L 282.678394 187.088145 
L 284.079297 188.574098 
L 285.694156 190.034069 
L 287.521583 191.462761 
L 289.559329 192.854802 
L 293.003114 194.862276 
L 296.898024 196.756721 
L 301.224197 198.519907 
L 305.95646 200.134002 
L 311.06423 201.581875 
L 316.511535 202.847414 
L 322.257175 203.915863 
L 328.255031 204.774156 
L 334.454545 205.411242 
L 340.801349 205.818385 
L 347.238052 205.989419 
L 353.705154 205.920945 
L 360.142059 205.61247 
L 366.488146 205.06646 
L 372.683869 204.288312 
L 378.671822 203.286255 
L 384.397735 202.071156 
L 389.81136 200.656281 
L 394.867215 199.05698 
L 399.525168 197.29035 
L 403.750845 195.374864 
L 407.515854 193.329995 
L 409.758656 191.904783 
L 411.781527 190.437041 
L 413.580483 188.932822 
L 415.152659 187.398158 
L 416.496261 185.839013 
L 417.610522 184.261261 
L 418.495635 182.67065 
L 419.152703 181.072781 
L 419.583666 179.473084 
L 419.791243 177.876804 
L 419.778864 176.288984 
L 419.550608 174.714454 
L 419.111136 173.157826 
L 418.465634 171.623484 
L 417.619755 170.115584 
L 416.579561 168.638053 
L 415.351472 167.194588 
L 413.942218 165.788661 
L 411.504023 163.757198 
L 408.698522 161.827503 
L 405.551096 160.008565 
L 402.087745 158.308366 
L 398.33489 156.733937 
L 394.319206 155.29141 
L 390.067483 153.986079 
L 385.606524 152.822449 
L 380.963057 151.804292 
L 376.163672 150.934696 
L 371.234785 150.216105 
L 364.506749 149.49598 
L 357.656539 149.050318 
L 350.74492 148.88024 
L 343.831942 148.985279 
L 336.976989 149.363434 
L 330.238826 150.011207 
L 323.675656 150.923602 
L 317.345155 152.094108 
L 312.784374 153.136568 
L 308.410547 154.315685 
L 304.247398 155.626902 
L 300.318434 157.065095 
L 296.646898 158.624539 
L 293.255716 160.29888 
L 290.167421 162.081101 
L 287.404059 163.963479 
L 284.987071 165.937559 
L 282.937155 167.994105 
L 281.784287 169.406027 
L 280.808975 170.846975 
L 280.01657 172.313598 
L 279.412142 173.802374 
L 279.000448 175.309608 
L 278.785895 176.831429 
L 278.772498 178.363793 
L 278.963839 179.902482 
L 279.363023 181.443106 
L 279.972626 182.981114 
L 280.794654 184.511793 
L 281.830485 186.03028 
L 283.080821 187.531576 
L 284.545635 189.010553 
L 286.22412 190.461977 
L 288.114634 191.880524 
L 290.214658 193.260801 
L 293.749717 195.247571 
L 297.732423 197.117646 
L 302.141852 198.852847 
L 306.951737 200.435453 
L 312.130391 201.848509 
L 317.640757 203.076145 
L 323.440599 204.103921 
L 329.482852 204.919153 
L 335.716126 205.511238 
L 342.085372 205.871941 
L 348.532701 205.995644 
L 354.998313 205.879529 
L 361.421532 205.5237 
L 367.741883 204.931218 
L 373.900186 204.108061 
L 379.839609 203.063001 
L 385.506648 201.807406 
L 390.85198 200.354978 
L 395.831178 198.721437 
L 400.405256 196.924172 
L 404.541037 194.981872 
L 408.21135 192.91415 
L 410.38895 191.475943 
L 412.345371 189.997001 
L 414.076966 188.483372 
L 415.581191 186.941067 
L 416.856561 185.376025 
L 417.902597 183.79408 
L 418.719765 182.200937 
L 419.309417 180.602146 
L 419.673729 179.003084 
L 419.815632 177.408933 
L 419.738751 175.824675 
L 419.447337 174.255075 
L 418.94621 172.704676 
L 418.240697 171.177797 
L 417.336571 169.678526 
L 416.240003 168.210721 
L 414.957508 166.778014 
L 413.495896 165.38381 
L 410.983148 163.371605 
L 408.108036 161.462987 
L 404.896078 159.666752 
L 401.373373 157.990692 
L 397.566407 156.441662 
L 393.50189 155.025626 
L 389.206628 153.747721 
L 384.707419 152.612307 
L 380.030973 151.623018 
L 375.203854 150.782811 
L 370.25244 150.094008 
L 363.502395 149.414023 
L 356.639256 149.00875 
L 349.72368 148.879067 
L 342.815613 149.02427 
L 335.974333 149.44213 
L 329.258509 150.128923 
L 322.726244 151.079425 
L 316.435116 152.286892 
L 311.909358 153.356181 
L 307.575213 154.561247 
L 303.456354 155.897426 
L 299.576226 157.35948 
L 295.958006 158.941566 
L 292.624539 160.637208 
L 289.598259 162.439256 
L 286.901096 164.339854 
L 284.554348 166.330399 
L 282.578541 168.40151 
L 281.47713 169.822009 
L 280.554837 171.270574 
L 279.816933 172.743806 
L 279.268404 174.238134 
L 278.913909 175.749814 
L 278.757747 177.274926 
L 278.803815 178.809376 
L 279.055563 180.348898 
L 279.515953 181.889056 
L 280.187404 183.425251 
L 281.07175 184.952727 
L 282.170182 186.46658 
L 283.483201 187.961771 
L 285.010564 189.433142 
L 286.751232 190.875428 
L 288.70332 192.283283 
L 290.864048 193.651298 
L 294.487933 195.616715 
L 298.555928 197.461893 
L 303.046094 199.168711 
L 307.931121 200.719559 
L 313.178272 202.097654 
L 318.749456 203.287366 
L 324.60145 204.274553 
L 330.686276 205.046902 
L 336.951741 205.594238 
L 343.342139 205.908811 
L 349.799085 205.985532 
L 356.262478 205.822143 
L 362.671545 205.419328 
L 368.965931 204.780731 
L 375.086787 203.912896 
L 380.97782 202.825135 
L 386.586245 201.529312 
L 391.863624 200.039567 
L 396.766544 198.371997 
L 401.257133 196.544296 
L 405.303388 194.57538 
L 408.879341 192.48502 
L 410.991942 191.033974 
L 412.882096 189.544007 
L 414.546494 188.021165 
L 415.982919 186.471441 
L 417.190198 184.900748 
L 418.168145 183.314887 
L 418.917503 181.719519 
L 419.439884 180.120145 
L 419.737699 178.522086 
L 419.8141 176.930465 
L 419.67291 175.3502 
L 419.318563 173.78599 
L 418.756039 172.242309 
L 417.990808 170.723405 
L 417.028769 169.233297 
L 415.876203 167.775773 
L 414.539719 166.354395 
L 413.026209 164.9725 
L 410.439676 162.980448 
L 407.49581 161.09382 
L 404.220256 159.321197 
L 400.639195 157.670181 
L 396.779161 156.147439 
L 392.666886 154.758765 
L 388.329174 153.509132 
L 383.792803 152.402753 
L 379.084452 151.44312 
L 374.230644 150.633062 
L 367.578118 149.789373 
L 360.775605 149.219038 
L 360.775605 149.219038 
" style="fill:none;stroke:#ff7f0e;stroke-linecap:square;stroke-width:1.5;"/>
   </g>
   <g id="line2d_23">
    <path clip-path="url(#p6febdc4211)" d="M 269.22776 193.733528 
L 273.37246 197.5936 
L 277.848624 201.381854 
L 282.634901 205.082081 
L 287.708453 208.678758 
L 293.04517 212.157156 
L 298.619892 215.503434 
L 304.406638 218.704718 
L 310.378831 221.749171 
L 316.509521 224.626033 
L 322.771588 227.32566 
L 329.137947 229.839544 
L 335.58173 232.160322 
L 342.07646 234.281767 
L 348.596203 236.198773 
L 355.115708 237.907327 
L 361.610525 239.404476 
L 368.057105 240.688277 
L 374.432884 241.757759 
L 380.716347 242.612861 
L 386.887087 243.254383 
L 392.925836 243.683928 
L 398.814494 243.90384 
L 404.536147 243.917148 
L 410.075061 243.727503 
L 415.416675 243.339124 
L 420.547588 242.756742 
L 425.455535 241.985547 
L 430.129361 241.031138 
L 434.558988 239.899475 
L 438.735379 238.596838 
L 442.650505 237.129776 
L 446.297295 235.505078 
L 449.669601 233.729733 
L 452.762149 231.8109 
L 455.570508 229.755879 
L 458.091036 227.572086 
L 460.320855 225.26703 
L 462.257802 222.848292 
L 463.517403 220.964223 
L 464.611033 219.023733 
L 465.538505 217.030065 
L 466.299817 214.986467 
L 466.895152 212.896189 
L 467.324863 210.762484 
L 467.589474 208.5886 
L 467.686673 205.633201 
L 467.493652 202.619832 
L 467.012938 199.556154 
L 466.247509 196.449805 
L 465.200775 193.308399 
L 463.876564 190.13952 
L 462.279108 186.950722 
L 460.413033 183.749535 
L 458.283354 180.543457 
L 455.895465 177.339961 
L 453.255134 174.146489 
L 450.368504 170.970462 
L 447.242088 167.819276 
L 443.882776 164.700306 
L 440.297836 161.620907 
L 435.511069 157.838482 
L 430.39957 154.143639 
L 424.980143 150.550615 
L 419.270611 147.073602 
L 413.289855 143.726732 
L 407.057848 140.524074 
L 400.595709 137.479615 
L 393.925744 134.607236 
L 387.071489 131.920685 
L 380.05775 129.433544 
L 372.910647 127.159182 
L 365.657649 125.110711 
L 358.32761 123.300917 
L 350.950789 121.742184 
L 343.55885 120.446409 
L 336.184851 119.424904 
L 330.321658 118.812333 
L 324.510188 118.387165 
L 318.769187 118.154081 
L 313.117883 118.117331 
L 307.575937 118.28068 
L 302.163387 118.647358 
L 296.900587 119.219999 
L 291.808125 120.000587 
L 286.906738 120.990392 
L 282.217206 122.189911 
L 277.760245 123.598811 
L 273.556373 125.215864 
L 270.581716 126.563984 
L 267.769127 128.026706 
L 265.126753 129.602422 
L 262.662514 131.289185 
L 260.384054 133.084708 
L 258.298703 134.986351 
L 256.413436 136.99112 
L 254.734825 139.09566 
L 253.269001 141.296262 
L 252.021608 143.588853 
L 250.997762 145.969014 
L 250.202011 148.431975 
L 249.638294 150.972634 
L 249.309912 153.585565 
L 249.219488 156.265035 
L 249.368944 159.005019 
L 249.759471 161.799227 
L 250.391514 164.641121 
L 251.264754 167.523944 
L 252.378093 170.440747 
L 253.729653 173.384419 
L 255.316776 176.347717 
L 257.136025 179.323304 
L 259.183203 182.303777 
L 261.453364 185.281704 
L 263.940838 188.249662 
L 266.639257 191.200266 
L 270.553046 195.094795 
L 274.810899 198.92848 
L 279.392626 202.684789 
L 284.27642 206.347788 
L 289.439068 209.902265 
L 294.85616 213.333825 
L 300.502321 216.628987 
L 306.351429 219.77525 
L 312.376844 222.761159 
L 318.551614 225.576342 
L 324.848685 228.211544 
L 331.241093 230.658646 
L 337.702145 232.910661 
L 344.205582 234.961731 
L 350.725731 236.807105 
L 357.237632 238.443111 
L 363.717153 239.867114 
L 370.141081 241.077476 
L 376.487203 242.073507 
L 382.734371 242.855411 
L 388.862544 243.424234 
L 394.852828 243.781803 
L 400.687501 243.930669 
L 406.350015 243.874047 
L 411.825001 243.615759 
L 417.098254 243.160176 
L 422.156722 242.512171 
L 426.98848 241.677057 
L 431.582702 240.660548 
L 435.929628 239.468704 
L 440.020535 238.107892 
L 443.847689 236.584742 
L 447.404308 234.906111 
L 450.684517 233.079052 
L 453.683314 231.110778 
L 456.39652 229.008638 
L 458.820746 226.780093 
L 460.953351 224.432689 
L 462.360243 222.598713 
L 463.601434 220.705389 
L 464.676564 218.755961 
L 465.58547 216.753679 
L 466.328175 214.701801 
L 466.904886 212.603586 
L 467.315985 210.462294 
L 467.56202 208.281187 
L 467.634556 205.316737 
L 467.417055 202.294998 
L 466.912109 199.223657 
L 466.122764 196.110374 
L 465.052502 192.962784 
L 463.705224 189.788495 
L 462.085235 186.595082 
L 460.197239 183.390092 
L 458.046328 180.181041 
L 455.637972 176.975412 
L 452.978017 173.780658 
L 450.072678 170.604205 
L 446.928544 167.453451 
L 443.552574 164.33577 
L 439.952106 161.258511 
L 435.14762 157.479939 
L 430.020386 153.790225 
L 424.587314 150.203563 
L 418.866318 146.73409 
L 412.876354 143.395873 
L 406.637456 140.202905 
L 400.170787 137.169086 
L 393.498677 134.308201 
L 386.644663 131.633891 
L 379.63353 129.159623 
L 372.491356 126.898646 
L 365.245542 124.863943 
L 357.924852 123.068168 
L 350.559423 121.523567 
L 343.18077 120.2419 
L 335.821779 119.234345 
L 329.971702 118.632733 
L 324.174212 118.218278 
L 318.44794 117.9956 
L 312.811989 117.968895 
L 307.285889 118.141879 
L 301.889546 118.517739 
L 296.643176 119.099075 
L 291.567236 119.887844 
L 286.682331 120.885299 
L 282.009118 122.091929 
L 277.568198 123.507401 
L 273.379982 125.130497 
L 270.416756 126.482813 
L 267.61529 127.949457 
L 264.983705 129.528832 
L 262.529893 131.219012 
L 260.261479 133.017726 
L 258.185782 134.922356 
L 256.309768 136.929931 
L 254.640011 139.037121 
L 253.182649 141.24024 
L 251.943336 143.535241 
L 250.927208 145.917731 
L 250.138837 148.382966 
L 249.582194 150.925868 
L 249.260614 153.541034 
L 249.176761 156.222752 
L 249.332601 158.965019 
L 249.729374 161.76156 
L 250.367575 164.60585 
L 251.246936 167.491142 
L 252.366409 170.410491 
L 253.724169 173.356789 
L 255.317604 176.322791 
L 257.143327 179.301153 
L 259.197181 182.28446 
L 261.474259 185.265266 
L 263.968923 188.236128 
L 266.674835 191.189638 
L 270.599119 195.087996 
L 274.868065 198.925392 
L 279.461488 202.685212 
L 284.357558 206.35144 
L 289.533015 209.908775 
L 294.96338 213.342734 
L 300.623185 216.63975 
L 306.486202 219.787241 
L 312.525661 222.773675 
L 318.71447 225.588614 
L 325.025424 228.222747 
L 331.431404 230.667908 
L 337.905558 232.917079 
L 344.421473 234.964382 
L 350.953324 236.805059 
L 357.47601 238.435441 
L 363.965263 239.85291 
L 370.397748 241.055857 
L 376.751142 242.043633 
L 383.004202 242.816493 
L 389.136808 243.37554 
L 395.130003 243.722668 
L 400.966018 243.860502 
L 406.628272 243.792333 
L 412.101377 243.522065 
L 417.371128 243.054158 
L 422.424483 242.393568 
L 427.249541 241.5457 
L 427.249541 241.5457 
" style="fill:none;stroke:#2ca02c;stroke-linecap:square;stroke-width:1.5;"/>
   </g>
   <g id="line2d_24">
    <path clip-path="url(#p6febdc4211)" d="M 468.875105 246.449021 
L 470.851952 243.067457 
L 472.613359 239.578176 
L 474.15477 235.986556 
L 475.471901 232.29821 
L 476.56076 228.51898 
L 477.417657 224.654944 
L 478.039221 220.712413 
L 478.422419 216.697928 
L 478.564573 212.618258 
L 478.463368 208.480398 
L 478.116874 204.291566 
L 477.523565 200.0592 
L 476.682331 195.790953 
L 475.592503 191.494684 
L 474.253867 187.178458 
L 472.66669 182.850531 
L 470.831729 178.519341 
L 468.750255 174.193498 
L 466.424069 169.881773 
L 463.855518 165.59308 
L 461.047515 161.336465 
L 458.003554 157.121085 
L 454.727727 152.956187 
L 451.224735 148.851087 
L 447.499896 144.815146 
L 443.559157 140.857744 
L 439.409098 136.988254 
L 435.056935 133.216011 
L 430.510524 129.550283 
L 425.778355 126.000237 
L 420.869553 122.574904 
L 415.793856 119.283141 
L 410.561607 116.133602 
L 405.183738 113.134693 
L 399.67174 110.294541 
L 394.037644 107.620953 
L 388.29399 105.121378 
L 382.453794 102.802874 
L 376.530506 100.672062 
L 370.537964 98.735101 
L 364.490354 96.997648 
L 358.402156 95.46483 
L 352.288089 94.141214 
L 346.163062 93.030781 
L 340.042111 92.136903 
L 333.940343 91.462319 
L 327.872869 91.009123 
L 321.854744 90.778748 
L 315.900905 90.77196 
L 310.026106 90.988853 
L 304.244862 91.428848 
L 298.57139 92.0907 
L 293.019554 92.972501 
L 287.602807 94.071694 
L 282.334139 95.385087 
L 277.226035 96.908875 
L 272.290427 98.63866 
L 267.538657 100.569479 
L 262.981444 102.695829 
L 258.628856 105.011698 
L 254.490282 107.510593 
L 250.574407 110.185581 
L 246.8892 113.029314 
L 243.441898 116.034073 
L 240.239001 119.191801 
L 237.286264 122.494139 
L 234.588706 125.932464 
L 232.150604 129.497922 
L 229.975503 133.181462 
L 228.066225 136.973875 
L 226.424879 140.865826 
L 225.052878 144.847887 
L 223.950958 148.910567 
L 223.119196 153.044346 
L 222.557036 157.239698 
L 222.263304 161.487118 
L 222.236239 165.777151 
L 222.473508 170.100411 
L 222.972241 174.447606 
L 223.72905 178.809559 
L 224.740059 183.177223 
L 226.000933 187.541702 
L 227.506898 191.894262 
L 229.25277 196.226344 
L 231.232976 200.529581 
L 233.441581 204.795805 
L 235.872312 209.017062 
L 238.518578 213.185615 
L 241.373501 217.293959 
L 244.429935 221.334818 
L 247.680483 225.301156 
L 251.117519 229.186183 
L 254.73321 232.983355 
L 258.519534 236.686381 
L 262.468299 240.289224 
L 266.571161 243.786104 
L 270.819646 247.1715 
L 276.321932 251.238467 
L 282.02131 255.113305 
L 287.900564 258.786919 
L 293.942309 262.250839 
L 300.129033 265.497218 
L 306.443137 268.518829 
L 312.866961 271.309048 
L 319.382812 273.861857 
L 325.972993 276.171839 
L 332.619827 278.23417 
L 339.305685 280.044617 
L 346.013016 281.599528 
L 352.724361 282.895826 
L 359.422375 283.931002 
L 366.089847 284.703115 
L 372.709721 285.210785 
L 379.265114 285.453189 
L 385.739343 285.430055 
L 392.115932 285.141653 
L 398.378632 284.588796 
L 404.51143 283.772838 
L 409.313545 282.931892 
L 414.014494 281.924979 
L 418.606456 280.753535 
L 423.081734 279.419214 
L 427.432757 277.923892 
L 431.652087 276.26966 
L 435.732428 274.458836 
L 439.666629 272.493954 
L 443.447694 270.377776 
L 447.06879 268.113285 
L 450.523258 265.703689 
L 453.804613 263.152419 
L 456.906559 260.463134 
L 459.822993 257.639718 
L 462.548019 254.686287 
L 465.075952 251.607186 
L 467.401337 248.406992 
L 469.518957 245.090515 
L 471.423842 241.662793 
L 473.111281 238.1291 
L 474.576832 234.494943 
L 475.816342 230.766063 
L 476.825952 226.948436 
L 477.602118 223.048273 
L 478.141629 219.072018 
L 478.441618 215.026343 
L 478.499578 210.918151 
L 478.31338 206.754569 
L 477.881291 202.542944 
L 477.20199 198.290842 
L 476.274587 194.006038 
L 475.098646 189.696512 
L 473.6742 185.370437 
L 472.001769 181.036167 
L 470.082377 176.702231 
L 467.917568 172.377314 
L 465.509426 168.07025 
L 462.860587 163.790001 
L 459.974255 159.545641 
L 456.854223 155.346338 
L 453.504876 151.201329 
L 449.931202 147.119898 
L 446.1388 143.111356 
L 442.133892 139.18501 
L 437.923317 135.350141 
L 433.514541 131.615971 
L 428.915653 127.991633 
L 424.135362 124.486138 
L 419.182983 121.108342 
L 414.068428 117.86691 
L 408.802189 114.770284 
L 403.395319 111.826646 
L 397.859408 109.04388 
L 392.206556 106.429542 
L 386.449345 103.990814 
L 380.600799 101.734477 
L 374.674341 99.666872 
L 368.683754 97.793869 
L 362.643134 96.120838 
L 356.566837 94.65262 
L 350.469432 93.393498 
L 344.365646 92.347178 
L 338.270307 91.516764 
L 332.198285 90.904738 
L 326.164431 90.512956 
L 320.183524 90.342626 
L 314.270209 90.394311 
L 308.438939 90.667922 
L 302.703924 91.162719 
L 297.079072 91.877315 
L 291.577937 92.809683 
L 286.213665 93.957168 
L 280.99895 95.316504 
L 275.945987 96.883833 
L 271.066435 98.654724 
L 266.371374 100.624199 
L 261.871283 102.786757 
L 257.575999 105.136403 
L 253.494698 107.66668 
L 249.63587 110.370698 
L 246.007305 113.24117 
L 242.616084 116.270446 
L 239.468563 119.450548 
L 236.570381 122.773202 
L 233.926452 126.229876 
L 231.540969 129.811809 
L 229.417408 133.51005 
L 227.558541 137.315491 
L 225.966444 141.218895 
L 224.642513 145.210934 
L 223.587483 149.282216 
L 222.801445 153.423308 
L 222.283867 157.624772 
L 222.033605 161.877182 
L 222.048937 166.171156 
L 222.327576 170.497374 
L 222.866699 174.846605 
L 223.66297 179.209722 
L 224.712566 183.577724 
L 226.011204 187.941748 
L 227.554156 192.293089 
L 229.33628 196.623212 
L 231.352044 200.923767 
L 233.59555 205.1866 
L 236.060556 209.403764 
L 238.740505 213.567529 
L 241.628547 217.670384 
L 244.717555 221.70505 
L 248.00015 225.664483 
L 251.46872 229.541881 
L 255.115443 233.330687 
L 258.932299 237.024593 
L 262.911098 240.617544 
L 267.043493 244.10374 
L 271.320996 247.477632 
L 276.858797 251.529033 
L 282.592794 255.38694 
L 288.505692 259.042213 
L 294.580015 262.486342 
L 300.798144 265.711446 
L 307.142358 268.710263 
L 313.594861 271.476152 
L 320.137816 274.003089 
L 326.753382 276.285661 
L 328.083639 276.712418 
L 328.083639 276.712418 
" style="fill:none;stroke:#d62728;stroke-linecap:square;stroke-width:1.5;"/>
   </g>
   <g id="line2d_25">
    <path clip-path="url(#p6febdc4211)" d="M 346.683375 195.025171 
L 351.873223 195.084854 
L 357.035941 194.983777 
L 362.121309 194.723638 
L 367.080456 194.308274 
L 371.866917 193.74353 
L 376.43755 193.037061 
L 380.753293 192.1981 
L 384.779736 191.237185 
L 388.487513 190.165881 
L 391.852509 188.996495 
L 394.855909 187.741791 
L 397.484093 186.414737 
L 399.728412 185.028269 
L 401.584865 183.595081 
L 403.053706 182.127456 
L 404.139005 180.637124 
L 404.848174 179.135152 
L 405.191499 177.631869 
L 405.18167 176.136811 
L 404.833335 174.658699 
L 404.162682 173.205431 
L 403.187056 171.78409 
L 401.924618 170.400974 
L 400.394038 169.06163 
L 398.614234 167.770892 
L 396.604148 166.532935 
L 393.198232 164.782604 
L 389.378265 163.16864 
L 385.203705 161.698324 
L 380.73098 160.376865 
L 376.013149 159.207736 
L 371.099753 158.192972 
L 366.036826 157.333428 
L 359.126868 156.428517 
L 352.118781 155.796897 
L 345.09577 155.43427 
L 338.133151 155.334816 
L 331.299582 155.491452 
L 324.658276 155.895998 
L 318.268122 156.539247 
L 312.18469 157.410996 
L 306.461081 158.500044 
L 301.148606 159.794176 
L 297.46418 160.891445 
L 294.059874 162.090711 
L 290.956087 163.385725 
L 288.17287 164.769964 
L 285.729845 166.236653 
L 283.646068 167.77882 
L 281.93983 169.389348 
L 280.449671 171.225953 
L 279.445251 172.699159 
L 278.627525 174.190819 
L 278.000014 175.697043 
L 277.565756 177.213858 
L 277.327292 178.737221 
L 277.28664 180.26303 
L 277.445284 181.787136 
L 277.804155 183.305349 
L 278.363617 184.813455 
L 279.12345 186.307224 
L 280.082844 187.782426 
L 281.240383 189.234842 
L 282.59404 190.660278 
L 284.141171 192.05458 
L 286.817314 194.0787 
L 289.907624 196.010008 
L 293.395314 197.83541 
L 297.260507 199.54237 
L 301.480317 201.119026 
L 306.028965 202.55429 
L 310.877925 203.837958 
L 315.996114 204.960802 
L 321.350108 205.914665 
L 326.904393 206.692541 
L 332.62165 207.288648 
L 338.463063 207.698485 
L 344.38865 207.918883 
L 350.357615 207.948036 
L 356.328715 207.785518 
L 362.260636 207.432292 
L 368.112366 206.89069 
L 373.843573 206.164395 
L 379.414972 205.25839 
L 384.788676 204.178907 
L 389.928533 202.933358 
L 394.800428 201.530251 
L 399.372574 199.979098 
L 403.615751 198.290316 
L 407.503528 196.475119 
L 411.012436 194.545405 
L 414.122108 192.513637 
L 416.815377 190.392728 
L 418.372554 188.935796 
L 419.735109 187.449108 
L 420.900383 185.936674 
L 421.866364 184.402515 
L 422.631676 182.850652 
L 423.195574 181.285089 
L 423.557928 179.709805 
L 423.719212 178.128736 
L 423.680483 176.545768 
L 423.443369 174.964721 
L 423.010041 173.389347 
L 422.383196 171.823309 
L 421.566032 170.270185 
L 420.562224 168.733448 
L 419.375898 167.216468 
L 417.264252 164.985135 
L 414.769281 162.816042 
L 411.909801 160.719041 
L 408.706227 158.703326 
L 405.18036 156.777408 
L 401.355187 154.949106 
L 397.254675 153.22554 
L 392.903579 151.613132 
L 388.327254 150.117606 
L 383.551478 148.744004 
L 376.918527 147.109651 
L 370.039184 145.708297 
L 362.975042 144.546506 
L 355.786835 143.628949 
L 348.533944 142.958503 
L 341.273964 142.536354 
L 334.06233 142.362107 
L 326.951992 142.433892 
L 319.993145 142.748467 
L 313.233003 143.301322 
L 306.715618 144.086775 
L 300.481741 145.098068 
L 294.568712 146.327456 
L 289.010391 147.766294 
L 285.092812 148.97721 
L 281.403388 150.296364 
L 277.952495 151.719274 
L 274.749398 153.241259 
L 271.802261 154.857457 
L 269.118159 156.562849 
L 266.703095 158.352269 
L 264.562022 160.220423 
L 262.698863 162.161912 
L 261.11654 164.171242 
L 259.816998 166.242848 
L 258.801235 168.371108 
L 258.069337 170.550363 
L 257.620509 172.774933 
L 257.453112 175.039136 
L 257.564697 177.337306 
L 257.952046 179.663811 
L 258.611207 182.013068 
L 259.537537 184.379561 
L 260.725738 186.757858 
L 262.169902 189.142627 
L 263.863546 191.528645 
L 265.799656 193.91082 
L 267.970724 196.284194 
L 270.368793 198.64396 
L 273.904803 201.761133 
L 277.808573 204.835298 
L 282.058209 207.856424 
L 286.630937 210.815021 
L 291.503254 213.702134 
L 296.651064 216.509319 
L 302.049809 219.228605 
L 307.674595 221.852447 
L 314.985175 224.9871 
L 322.560426 227.947933 
L 330.351112 230.721846 
L 338.308303 233.295774 
L 346.383635 235.656313 
L 354.529522 237.789324 
L 361.046128 239.304736 
L 367.514597 240.606976 
L 373.913841 241.693799 
L 380.222079 242.56505 
L 386.418637 243.221445 
L 392.483984 243.664516 
L 398.399765 243.896554 
L 404.148818 243.920542 
L 409.71517 243.7401 
L 415.084032 243.35943 
L 420.241789 242.783257 
L 425.175975 242.016775 
L 429.875249 241.065599 
L 434.329359 239.935717 
L 438.529118 238.633441 
L 442.466356 237.165364 
L 446.133878 235.538322 
L 449.525427 233.759362 
L 452.635641 231.835705 
L 455.460007 229.774719 
L 457.994826 227.583893 
L 460.237168 225.27081 
L 461.725641 223.460373 
L 463.047679 221.588725 
L 464.202823 219.659132 
L 465.190817 217.674871 
L 466.011601 215.639225 
L 466.6653 213.55548 
L 467.152218 211.426927 
L 467.472836 209.256855 
L 467.627798 207.048551 
L 467.578149 204.050349 
L 467.2378 200.997781 
L 466.609564 197.89859 
L 465.696701 194.760496 
L 464.502908 191.591187 
L 463.032298 188.398325 
L 461.289389 185.18954 
L 459.279098 181.972432 
L 457.006733 178.754568 
L 454.477979 175.543483 
L 451.698901 172.346685 
L 448.675937 169.171652 
L 445.415904 166.025836 
L 441.925995 162.916663 
L 437.251928 159.093005 
L 432.246214 155.352576 
L 426.925486 151.70972 
L 421.30592 148.179787 
L 415.363933 144.757411 
L 409.1137 141.45174 
L 402.581282 138.277578 
L 395.794242 135.249752 
L 388.78154 132.383058 
L 381.573412 129.692183 
L 374.201229 127.191616 
L 366.697337 124.895556 
L 359.09489 122.817802 
L 351.427662 120.971649 
L 343.729841 119.369765 
L 336.035826 118.024079 
L 328.380005 116.945659 
L 320.796532 116.144597 
L 314.80451 115.709533 
L 308.897318 115.461821 
L 303.091551 115.404993 
L 297.403387 115.542023 
L 291.84851 115.875298 
L 286.442054 116.406586 
L 281.198541 117.137018 
L 276.131823 118.06706 
L 271.255033 119.1965 
L 266.580537 120.524432 
L 262.119901 122.049245 
L 257.883848 123.76862 
L 253.882236 125.679522 
L 250.124035 127.77821 
L 246.617307 130.060237 
L 243.369204 132.520465 
L 241.106633 134.47911 
L 238.995352 136.532041 
L 237.037364 138.676362 
L 235.234384 140.908982 
L 233.587845 143.226622 
L 232.098901 145.625823 
L 230.768431 148.102956 
L 229.597049 150.654231 
L 228.585104 153.275708 
L 227.73269 155.963305 
L 227.039657 158.712814 
L 226.362825 162.467636 
L 225.967045 166.314279 
L 225.850058 170.241925 
L 226.008945 174.239535 
L 226.440173 178.295903 
L 227.139632 182.399716 
L 228.102673 186.53961 
L 229.324152 190.704225 
L 230.798467 194.882262 
L 232.519599 199.062541 
L 234.481149 203.234049 
L 236.676376 207.38599 
L 239.098231 211.507839 
L 241.739392 215.589376 
L 244.592297 219.620732 
L 247.649175 223.592423 
L 250.902071 227.495379 
L 254.34288 231.320969 
L 257.963365 235.061022 
L 261.755189 238.707839 
L 265.709928 242.2542 
L 269.8191 245.693365 
L 274.074181 249.019064 
L 279.585195 253.00782 
L 285.294134 256.799844 
L 291.184339 260.385716 
L 297.239238 263.756861 
L 303.442401 266.905403 
L 309.777593 269.823979 
L 316.228825 272.50552 
L 322.780415 274.943007 
L 328.083639 276.712418 
L 328.083639 276.712418 
" style="fill:none;stroke:#9467bd;stroke-linecap:square;stroke-width:1.5;"/>
   </g>
   <g id="Path3DCollection_1">
    <defs>
     <path d="M 0 2.236068 
C 0.593012 2.236068 1.161816 2.000462 1.581139 1.581139 
C 2.000462 1.161816 2.236068 0.593012 2.236068 0 
C 2.236068 -0.593012 2.000462 -1.161816 1.581139 -1.581139 
C 1.161816 -2.000462 0.593012 -2.236068 0 -2.236068 
C -0.593012 -2.236068 -1.161816 -2.000462 -1.581139 -1.581139 
C -2.000462 -1.161816 -2.236068 -0.593012 -2.236068 0 
C -2.236068 0.593012 -2.000462 1.161816 -1.581139 1.581139 
C -1.161816 2.000462 -0.593012 2.236068 0 2.236068 
z
" id="md84f0aeae5" style="stroke:#d62728;"/>
    </defs>
    <g clip-path="url(#p6febdc4211)">
     <use style="fill:#d62728;stroke:#d62728;" x="424.712909" xlink:href="#md84f0aeae5" y="150.2831"/>
    </g>
   </g>
   <g id="Path3DCollection_2">
    <defs>
     <path d="M 0 2.236068 
C 0.593012 2.236068 1.161816 2.000462 1.581139 1.581139 
C 2.000462 1.161816 2.236068 0.593012 2.236068 0 
C 2.236068 -0.593012 2.000462 -1.161816 1.581139 -1.581139 
C 1.161816 -2.000462 0.593012 -2.236068 0 -2.236068 
C -0.593012 -2.236068 -1.161816 -2.000462 -1.581139 -1.581139 
C -2.000462 -1.161816 -2.236068 -0.593012 -2.236068 0 
C -2.236068 0.593012 -2.000462 1.161816 -1.581139 1.581139 
C -1.161816 2.000462 -0.593012 2.236068 0 2.236068 
z
" id="m6a6f5b3c33" style="stroke:#ff7f0e;"/>
    </defs>
    <g clip-path="url(#p6febdc4211)">
     <use style="fill:#ff7f0e;stroke:#ff7f0e;" x="281.020664" xlink:href="#m6a6f5b3c33" y="170.497465"/>
    </g>
   </g>
   <g id="Path3DCollection_3">
    <defs>
     <path d="M 0 5 
C 1.326016 5 2.597899 4.473168 3.535534 3.535534 
C 4.473168 2.597899 5 1.326016 5 0 
C 5 -1.326016 4.473168 -2.597899 3.535534 -3.535534 
C 2.597899 -4.473168 1.326016 -5 0 -5 
C -1.326016 -5 -2.597899 -4.473168 -3.535534 -3.535534 
C -4.473168 -2.597899 -5 -1.326016 -5 0 
C -5 1.326016 -4.473168 2.597899 -3.535534 3.535534 
C -2.597899 4.473168 -1.326016 5 0 5 
z
" id="m42ddb0ea64" style="stroke:#ffa500;"/>
    </defs>
    <g clip-path="url(#p6febdc4211)">
     <use style="fill:#ffff00;stroke:#ffa500;" x="350.46229" xlink:href="#m42ddb0ea64" y="179.54345"/>
    </g>
   </g>
   <g id="legend_1">
    <g id="patch_6">
     <path d="M 513.717938 141.42875 
L 598.232 141.42875 
Q 600.232 141.42875 600.232 139.42875 
L 600.232 52.36 
Q 600.232 50.36 598.232 50.36 
L 513.717938 50.36 
Q 511.717938 50.36 511.717938 52.36 
L 511.717938 139.42875 
Q 511.717938 141.42875 513.717938 141.42875 
z
" style="fill:#ffffff;opacity:0.8;stroke:#cccccc;stroke-linejoin:miter;"/>
    </g>
    <g id="line2d_26">
     <path d="M 515.717938 58.458438 
L 535.717938 58.458438 
" style="fill:none;stroke:#1f77b4;stroke-linecap:square;stroke-width:1.5;"/>
    </g>
    <g id="line2d_27"/>
    <g id="text_21">
     <!-- 3 -->
     <g transform="translate(543.717938 61.958438)scale(0.1 -0.1)">
      <use xlink:href="#DejaVuSans-51"/>
     </g>
    </g>
    <g id="line2d_28">
     <path d="M 515.717938 73.136563 
L 535.717938 73.136563 
" style="fill:none;stroke:#ff7f0e;stroke-linecap:square;stroke-width:1.5;"/>
    </g>
    <g id="line2d_29"/>
    <g id="text_22">
     <!-- 4 -->
     <g transform="translate(543.717938 76.636563)scale(0.1 -0.1)">
      <use xlink:href="#DejaVuSans-52"/>
     </g>
    </g>
    <g id="line2d_30">
     <path d="M 515.717938 87.814687 
L 535.717938 87.814687 
" style="fill:none;stroke:#2ca02c;stroke-linecap:square;stroke-width:1.5;"/>
    </g>
    <g id="line2d_31"/>
    <g id="text_23">
     <!-- 2000004 -->
     <g transform="translate(543.717938 91.314687)scale(0.1 -0.1)">
      <use xlink:href="#DejaVuSans-50"/>
      <use x="63.623047" xlink:href="#DejaVuSans-48"/>
      <use x="127.246094" xlink:href="#DejaVuSans-48"/>
      <use x="190.869141" xlink:href="#DejaVuSans-48"/>
      <use x="254.492188" xlink:href="#DejaVuSans-48"/>
      <use x="318.115234" xlink:href="#DejaVuSans-48"/>
      <use x="381.738281" xlink:href="#DejaVuSans-52"/>
     </g>
    </g>
    <g id="line2d_32">
     <path d="M 515.717938 102.492813 
L 535.717938 102.492813 
" style="fill:none;stroke:#d62728;stroke-linecap:square;stroke-width:1.5;"/>
    </g>
    <g id="line2d_33"/>
    <g id="text_24">
     <!-- 2000001 -->
     <g transform="translate(543.717938 105.992813)scale(0.1 -0.1)">
      <use xlink:href="#DejaVuSans-50"/>
      <use x="63.623047" xlink:href="#DejaVuSans-48"/>
      <use x="127.246094" xlink:href="#DejaVuSans-48"/>
      <use x="190.869141" xlink:href="#DejaVuSans-48"/>
      <use x="254.492188" xlink:href="#DejaVuSans-48"/>
      <use x="318.115234" xlink:href="#DejaVuSans-48"/>
      <use x="381.738281" xlink:href="#DejaVuSans-49"/>
     </g>
    </g>
    <g id="line2d_34">
     <path d="M 515.717938 117.170938 
L 535.717938 117.170938 
" style="fill:none;stroke:#9467bd;stroke-linecap:square;stroke-width:1.5;"/>
    </g>
    <g id="line2d_35"/>
    <g id="text_25">
     <!-- spacecraft -->
     <defs>
      <path d="M 44.28125 53.078125 
L 44.28125 44.578125 
Q 40.484375 46.53125 36.375 47.5 
Q 32.28125 48.484375 27.875 48.484375 
Q 21.1875 48.484375 17.84375 46.4375 
Q 14.5 44.390625 14.5 40.28125 
Q 14.5 37.15625 16.890625 35.375 
Q 19.28125 33.59375 26.515625 31.984375 
L 29.59375 31.296875 
Q 39.15625 29.25 43.1875 25.515625 
Q 47.21875 21.78125 47.21875 15.09375 
Q 47.21875 7.46875 41.1875 3.015625 
Q 35.15625 -1.421875 24.609375 -1.421875 
Q 20.21875 -1.421875 15.453125 -0.5625 
Q 10.6875 0.296875 5.421875 2 
L 5.421875 11.28125 
Q 10.40625 8.6875 15.234375 7.390625 
Q 20.0625 6.109375 24.8125 6.109375 
Q 31.15625 6.109375 34.5625 8.28125 
Q 37.984375 10.453125 37.984375 14.40625 
Q 37.984375 18.0625 35.515625 20.015625 
Q 33.0625 21.96875 24.703125 23.78125 
L 21.578125 24.515625 
Q 13.234375 26.265625 9.515625 29.90625 
Q 5.8125 33.546875 5.8125 39.890625 
Q 5.8125 47.609375 11.28125 51.796875 
Q 16.75 56 26.8125 56 
Q 31.78125 56 36.171875 55.265625 
Q 40.578125 54.546875 44.28125 53.078125 
z
" id="DejaVuSans-115"/>
      <path d="M 18.109375 8.203125 
L 18.109375 -20.796875 
L 9.078125 -20.796875 
L 9.078125 54.6875 
L 18.109375 54.6875 
L 18.109375 46.390625 
Q 20.953125 51.265625 25.265625 53.625 
Q 29.59375 56 35.59375 56 
Q 45.5625 56 51.78125 48.09375 
Q 58.015625 40.1875 58.015625 27.296875 
Q 58.015625 14.40625 51.78125 6.484375 
Q 45.5625 -1.421875 35.59375 -1.421875 
Q 29.59375 -1.421875 25.265625 0.953125 
Q 20.953125 3.328125 18.109375 8.203125 
z
M 48.6875 27.296875 
Q 48.6875 37.203125 44.609375 42.84375 
Q 40.53125 48.484375 33.40625 48.484375 
Q 26.265625 48.484375 22.1875 42.84375 
Q 18.109375 37.203125 18.109375 27.296875 
Q 18.109375 17.390625 22.1875 11.75 
Q 26.265625 6.109375 33.40625 6.109375 
Q 40.53125 6.109375 44.609375 11.75 
Q 48.6875 17.390625 48.6875 27.296875 
z
" id="DejaVuSans-112"/>
      <path d="M 34.28125 27.484375 
Q 23.390625 27.484375 19.1875 25 
Q 14.984375 22.515625 14.984375 16.5 
Q 14.984375 11.71875 18.140625 8.90625 
Q 21.296875 6.109375 26.703125 6.109375 
Q 34.1875 6.109375 38.703125 11.40625 
Q 43.21875 16.703125 43.21875 25.484375 
L 43.21875 27.484375 
z
M 52.203125 31.203125 
L 52.203125 0 
L 43.21875 0 
L 43.21875 8.296875 
Q 40.140625 3.328125 35.546875 0.953125 
Q 30.953125 -1.421875 24.3125 -1.421875 
Q 15.921875 -1.421875 10.953125 3.296875 
Q 6 8.015625 6 15.921875 
Q 6 25.140625 12.171875 29.828125 
Q 18.359375 34.515625 30.609375 34.515625 
L 43.21875 34.515625 
L 43.21875 35.40625 
Q 43.21875 41.609375 39.140625 45 
Q 35.0625 48.390625 27.6875 48.390625 
Q 23 48.390625 18.546875 47.265625 
Q 14.109375 46.140625 10.015625 43.890625 
L 10.015625 52.203125 
Q 14.9375 54.109375 19.578125 55.046875 
Q 24.21875 56 28.609375 56 
Q 40.484375 56 46.34375 49.84375 
Q 52.203125 43.703125 52.203125 31.203125 
z
" id="DejaVuSans-97"/>
      <path d="M 48.78125 52.59375 
L 48.78125 44.1875 
Q 44.96875 46.296875 41.140625 47.34375 
Q 37.3125 48.390625 33.40625 48.390625 
Q 24.65625 48.390625 19.8125 42.84375 
Q 14.984375 37.3125 14.984375 27.296875 
Q 14.984375 17.28125 19.8125 11.734375 
Q 24.65625 6.203125 33.40625 6.203125 
Q 37.3125 6.203125 41.140625 7.25 
Q 44.96875 8.296875 48.78125 10.40625 
L 48.78125 2.09375 
Q 45.015625 0.34375 40.984375 -0.53125 
Q 36.96875 -1.421875 32.421875 -1.421875 
Q 20.0625 -1.421875 12.78125 6.34375 
Q 5.515625 14.109375 5.515625 27.296875 
Q 5.515625 40.671875 12.859375 48.328125 
Q 20.21875 56 33.015625 56 
Q 37.15625 56 41.109375 55.140625 
Q 45.0625 54.296875 48.78125 52.59375 
z
" id="DejaVuSans-99"/>
      <path d="M 56.203125 29.59375 
L 56.203125 25.203125 
L 14.890625 25.203125 
Q 15.484375 15.921875 20.484375 11.0625 
Q 25.484375 6.203125 34.421875 6.203125 
Q 39.59375 6.203125 44.453125 7.46875 
Q 49.3125 8.734375 54.109375 11.28125 
L 54.109375 2.78125 
Q 49.265625 0.734375 44.1875 -0.34375 
Q 39.109375 -1.421875 33.890625 -1.421875 
Q 20.796875 -1.421875 13.15625 6.1875 
Q 5.515625 13.8125 5.515625 26.8125 
Q 5.515625 40.234375 12.765625 48.109375 
Q 20.015625 56 32.328125 56 
Q 43.359375 56 49.78125 48.890625 
Q 56.203125 41.796875 56.203125 29.59375 
z
M 47.21875 32.234375 
Q 47.125 39.59375 43.09375 43.984375 
Q 39.0625 48.390625 32.421875 48.390625 
Q 24.90625 48.390625 20.390625 44.140625 
Q 15.875 39.890625 15.1875 32.171875 
z
" id="DejaVuSans-101"/>
      <path d="M 41.109375 46.296875 
Q 39.59375 47.171875 37.8125 47.578125 
Q 36.03125 48 33.890625 48 
Q 26.265625 48 22.1875 43.046875 
Q 18.109375 38.09375 18.109375 28.8125 
L 18.109375 0 
L 9.078125 0 
L 9.078125 54.6875 
L 18.109375 54.6875 
L 18.109375 46.1875 
Q 20.953125 51.171875 25.484375 53.578125 
Q 30.03125 56 36.53125 56 
Q 37.453125 56 38.578125 55.875 
Q 39.703125 55.765625 41.0625 55.515625 
z
" id="DejaVuSans-114"/>
      <path d="M 37.109375 75.984375 
L 37.109375 68.5 
L 28.515625 68.5 
Q 23.6875 68.5 21.796875 66.546875 
Q 19.921875 64.59375 19.921875 59.515625 
L 19.921875 54.6875 
L 34.71875 54.6875 
L 34.71875 47.703125 
L 19.921875 47.703125 
L 19.921875 0 
L 10.890625 0 
L 10.890625 47.703125 
L 2.296875 47.703125 
L 2.296875 54.6875 
L 10.890625 54.6875 
L 10.890625 58.5 
Q 10.890625 67.625 15.140625 71.796875 
Q 19.390625 75.984375 28.609375 75.984375 
z
" id="DejaVuSans-102"/>
      <path d="M 18.3125 70.21875 
L 18.3125 54.6875 
L 36.8125 54.6875 
L 36.8125 47.703125 
L 18.3125 47.703125 
L 18.3125 18.015625 
Q 18.3125 11.328125 20.140625 9.421875 
Q 21.96875 7.515625 27.59375 7.515625 
L 36.8125 7.515625 
L 36.8125 0 
L 27.59375 0 
Q 17.1875 0 13.234375 3.875 
Q 9.28125 7.765625 9.28125 18.015625 
L 9.28125 47.703125 
L 2.6875 47.703125 
L 2.6875 54.6875 
L 9.28125 54.6875 
L 9.28125 70.21875 
z
" id="DejaVuSans-116"/>
     </defs>
     <g transform="translate(543.717938 120.670938)scale(0.1 -0.1)">
      <use xlink:href="#DejaVuSans-115"/>
      <use x="52.099609" xlink:href="#DejaVuSans-112"/>
      <use x="115.576172" xlink:href="#DejaVuSans-97"/>
      <use x="176.855469" xlink:href="#DejaVuSans-99"/>
      <use x="231.835938" xlink:href="#DejaVuSans-101"/>
      <use x="293.359375" xlink:href="#DejaVuSans-99"/>
      <use x="348.339844" xlink:href="#DejaVuSans-114"/>
      <use x="389.453125" xlink:href="#DejaVuSans-97"/>
      <use x="450.732422" xlink:href="#DejaVuSans-102"/>
      <use x="485.921875" xlink:href="#DejaVuSans-116"/>
     </g>
    </g>
    <g id="Path3DCollection_4">
     <g>
      <use style="fill:#ffff00;stroke:#ffa500;" x="525.717938" xlink:href="#m42ddb0ea64" y="132.724063"/>
     </g>
    </g>
    <g id="text_26">
     <!-- Sun -->
     <defs>
      <path d="M 53.515625 70.515625 
L 53.515625 60.890625 
Q 47.90625 63.578125 42.921875 64.890625 
Q 37.9375 66.21875 33.296875 66.21875 
Q 25.25 66.21875 20.875 63.09375 
Q 16.5 59.96875 16.5 54.203125 
Q 16.5 49.359375 19.40625 46.890625 
Q 22.3125 44.4375 30.421875 42.921875 
L 36.375 41.703125 
Q 47.40625 39.59375 52.65625 34.296875 
Q 57.90625 29 57.90625 20.125 
Q 57.90625 9.515625 50.796875 4.046875 
Q 43.703125 -1.421875 29.984375 -1.421875 
Q 24.8125 -1.421875 18.96875 -0.25 
Q 13.140625 0.921875 6.890625 3.21875 
L 6.890625 13.375 
Q 12.890625 10.015625 18.65625 8.296875 
Q 24.421875 6.59375 29.984375 6.59375 
Q 38.421875 6.59375 43.015625 9.90625 
Q 47.609375 13.234375 47.609375 19.390625 
Q 47.609375 24.75 44.3125 27.78125 
Q 41.015625 30.8125 33.5 32.328125 
L 27.484375 33.5 
Q 16.453125 35.6875 11.515625 40.375 
Q 6.59375 45.0625 6.59375 53.421875 
Q 6.59375 63.09375 13.40625 68.65625 
Q 20.21875 74.21875 32.171875 74.21875 
Q 37.3125 74.21875 42.625 73.28125 
Q 47.953125 72.359375 53.515625 70.515625 
z
" id="DejaVuSans-83"/>
      <path d="M 8.5 21.578125 
L 8.5 54.6875 
L 17.484375 54.6875 
L 17.484375 21.921875 
Q 17.484375 14.15625 20.5 10.265625 
Q 23.53125 6.390625 29.59375 6.390625 
Q 36.859375 6.390625 41.078125 11.03125 
Q 45.3125 15.671875 45.3125 23.6875 
L 45.3125 54.6875 
L 54.296875 54.6875 
L 54.296875 0 
L 45.3125 0 
L 45.3125 8.40625 
Q 42.046875 3.421875 37.71875 1 
Q 33.40625 -1.421875 27.6875 -1.421875 
Q 18.265625 -1.421875 13.375 4.4375 
Q 8.5 10.296875 8.5 21.578125 
z
M 31.109375 56 
z
" id="DejaVuSans-117"/>
      <path d="M 54.890625 33.015625 
L 54.890625 0 
L 45.90625 0 
L 45.90625 32.71875 
Q 45.90625 40.484375 42.875 44.328125 
Q 39.84375 48.1875 33.796875 48.1875 
Q 26.515625 48.1875 22.3125 43.546875 
Q 18.109375 38.921875 18.109375 30.90625 
L 18.109375 0 
L 9.078125 0 
L 9.078125 54.6875 
L 18.109375 54.6875 
L 18.109375 46.1875 
Q 21.34375 51.125 25.703125 53.5625 
Q 30.078125 56 35.796875 56 
Q 45.21875 56 50.046875 50.171875 
Q 54.890625 44.34375 54.890625 33.015625 
z
" id="DejaVuSans-110"/>
     </defs>
     <g transform="translate(543.717938 135.349063)scale(0.1 -0.1)">
      <use xlink:href="#DejaVuSans-83"/>
      <use x="63.476562" xlink:href="#DejaVuSans-117"/>
      <use x="126.855469" xlink:href="#DejaVuSans-110"/>
     </g>
    </g>
   </g>
   <g id="Path3DCollection_5">
    <defs>
     <path d="M 0 2.236068 
C 0.593012 2.236068 1.161816 2.000462 1.581139 1.581139 
C 2.000462 1.161816 2.236068 0.593012 2.236068 0 
C 2.236068 -0.593012 2.000462 -1.161816 1.581139 -1.581139 
C 1.161816 -2.000462 0.593012 -2.236068 0 -2.236068 
C -0.593012 -2.236068 -1.161816 -2.000462 -1.581139 -1.581139 
C -2.000462 -1.161816 -2.236068 -0.593012 -2.236068 0 
C -2.236068 0.593012 -2.000462 1.161816 -1.581139 1.581139 
C -1.161816 2.000462 -0.593012 2.236068 0 2.236068 
z
" id="m8de16f1da5" style="stroke:#1f77b4;"/>
    </defs>
    <g clip-path="url(#p6febdc4211)">
     <use style="fill:#1f77b4;stroke:#1f77b4;" x="346.683375" xlink:href="#m8de16f1da5" y="195.025171"/>
    </g>
   </g>
   <g id="Path3DCollection_6">
    <defs>
     <path d="M 0 2.236068 
C 0.593012 2.236068 1.161816 2.000462 1.581139 1.581139 
C 2.000462 1.161816 2.236068 0.593012 2.236068 0 
C 2.236068 -0.593012 2.000462 -1.161816 1.581139 -1.581139 
C 1.161816 -2.000462 0.593012 -2.236068 0 -2.236068 
C -0.593012 -2.236068 -1.161816 -2.000462 -1.581139 -1.581139 
C -2.000462 -1.161816 -2.236068 -0.593012 -2.236068 0 
C -2.236068 0.593012 -2.000462 1.161816 -1.581139 1.581139 
C -1.161816 2.000462 -0.593012 2.236068 0 2.236068 
z
" id="m8d1f67a33a" style="stroke:#9467bd;"/>
    </defs>
    <g clip-path="url(#p6febdc4211)">
     <use style="fill:#9467bd;stroke:#9467bd;" x="328.083639" xlink:href="#m8d1f67a33a" y="276.712418"/>
    </g>
   </g>
   <g id="Path3DCollection_7">
    <defs>
     <path d="M 0 2.236068 
C 0.593012 2.236068 1.161816 2.000462 1.581139 1.581139 
C 2.000462 1.161816 2.236068 0.593012 2.236068 0 
C 2.236068 -0.593012 2.000462 -1.161816 1.581139 -1.581139 
C 1.161816 -2.000462 0.593012 -2.236068 0 -2.236068 
C -0.593012 -2.236068 -1.161816 -2.000462 -1.581139 -1.581139 
C -2.000462 -1.161816 -2.236068 -0.593012 -2.236068 0 
C -2.236068 0.593012 -2.000462 1.161816 -1.581139 1.581139 
C -1.161816 2.000462 -0.593012 2.236068 0 2.236068 
z
" id="m120369f3fd" style="stroke:#2ca02c;"/>
    </defs>
    <g clip-path="url(#p6febdc4211)">
     <use style="fill:#2ca02c;stroke:#2ca02c;" x="356.163045" xlink:href="#m120369f3fd" y="238.187303"/>
    </g>
   </g>
  </g>
 </g>
 <defs>
  <clipPath id="p6febdc4211">
   <rect height="291.06" width="521.172" x="84.06" y="45.36"/>
  </clipPath>
 </defs>
</svg>
